<svg width="1293" height="684" viewBox="0 0 1293 684" xmlns="http://www.w3.org/2000/svg" xmlns:xlink="http://www.w3.org/1999/xlink"><title>map</title><defs><path id="a" d="M0 583h481.13V.169H0V583z"/><path id="c" d="M218.52.118H.683v176.043H218.52V.118z"/></defs><g fill="none" fill-rule="evenodd"><path d="M781.648 488.795c-.511 1.08-.115 3.374-.752 4.048-2.041 2.157-5.977 7.29-8.897 9.056-3.683 2.298-8.264 1.888-8.264 8.505 0 2.165 1.919 5.544 1.919 7.03 0 .26-2.536 6.07-2.536 6.07-.261 0-2.548 2.177-2.548 2.712 0 2.03 0 4.19 1.521 5.406.126.943-.251 1.628-.251 3.38 0 3.504 2.788 7.412 5.97 7.412 7.744 0 8.896-9.032 11.174-15.121 2.8-7.696 5.716-14.467 5.716-24.31.247 0 1.519.4 2.165.672v-2.03c-1.269-3.511-.894-12.29-5.217-12.83M892.794 414.075c0 1.897 1.394 3.785 3.184 3.785 2.398 0 4.05-3.097 4.05-5.538 0-4.314-3.682-5.95-5.463-9.18 0 4.052-1.771 7.022-1.771 10.933M987.03 461.097c0-1.355-.629-3.238.654-3.78v-5.82c0-1.352-1.794-1.754-2.555-2.555-1.395-1.49-2.926-2.29-2.926-5.135-1.397 0-2.405-.405-2.405-2.161l.506-1.352c-.259-.543-.65-1.222-1.145-1.222h-1.004c0-.14.236-.544.236-.66 0-2.035-2.154-2.711-4.059-3.39-3.564-1.224-4.957-2.964-7.37-5.537-1.26-1.357-2.16-2.977-4.059-3.647-.509-.132-1.148 0-1.386-.68-1.026-2.154-1.92-4.181-4.707-5.126h-4.186c-1.029-.551-1.277-1.228-2.545-1.228h-.766v1.088c.378 1.357 2.411 5.137 3.43 5.41 1.143.253 2.414 0 2.915 1.206.775 1.62 1.152 2.438 1.91 4.055.888 1.888 3.81 1.355 4.7 4.46.251 1.09 1.136 4.309 1.782 4.728.364.275 1.901.41 2.027.686.256.406 0 1.209.385 1.209.38 0 1.9 2.688 2.15 3.374 1.404 3.105 2.421 5.538 4.958 8.236 2.281 2.432 4.585 3.513 6.98 6.083.13.124 2.423 3.648 3.047 3.648.895 0 3.432-.401 3.432-1.89M998.854 437.322c0 .664 1.272 5.525 1.896 5.666.646.133 1.396.133 1.652.818 0 .131-.127.535-.127.677 1.657 2.7-.384 7.432 4.323 7.432 1.021 0 1.65-.825 2.673-.68.11.532 0 2.021.247 2.021.377 0 .628.675 1.01.675 1.531 0 2.16-1.477 3.174-1.477 2.161 0 3.564 1.604 5.595 2.164 0 .811.376 1.888 1.638 1.888 1.661 0 1.915-1.623 3.95-2.168 0-1.495 1.521-3.497 1.521-4.595 0-.67-.626-.942-.626-1.878 0-.818 1.257-2.845 2.786-3.116 0-2.293 1.024-3.104 1.662-6.08l.623-1.347c.384-.14.904-.269 1.277-.269 1.382 0 2.408.661 2.792-1.357-2.28 0-5.714-6.75-5.714-8.782 0-.406.5-.817.886-.944-.129-.416-.387-.812-.502-1.223 0 0 3.432-1.478 3.68-1.889-.248 0-.507-.4-.507-.678 0-1.204 2.806-.402 2.806-1.623 0-2.697-5.34-1.076-5.34-3.91 0-2.023.242-3.375-1.916-3.375-2.029 0-4.826 5.131-5.845 7.285-.497 1.088-3.424.42-4.565 1.623-.258.277-.384.957-.778 1.09-.614.26-.492.54-1.262.947 0 0-1.379 1.086-.879 1.621-1.026 1.076-1.026 2.433-2.925 2.836-1.392.272-2.679.272-3.56 1.205-1.772 1.905-1.27 6.091-5.202 6.091-1.772 0-4.443-.947-4.443 1.352M1043.541 438.932c2.163 0 3.06-.52 4.845-.52 1.642 0 2.791.92 4.444.92 2.541 0 3.426-2.279 3.808-4.309.387 0 .506-.67.633-1.086h-.759c-1.542 1.086-3.3 2.3-4.061 3.116h-1.024l-8.885-1.632c-3.299 0-4.82 4.478-4.82 7.7 0 .816-1.021 1.486-1.148 2.04-.89 3.101-2.286 4.324-2.286 7.287 0 1.62 1.762 1.62 2.533 1.752v6.486c0 .81 1.017 1.751 2.024 1.751 1.419 0 1.915-4.727 1.915-5.39 0-1.763-1.128-2.7-1.128-4.462 0-.95 1.008-1.624 1.904-1.624.365 0 .631.135 1.006 0l-.51 2.842c0 1.747 2.036 2.427 2.036 4.177 0 .403.126.82 0 1.222h1.636c0-1.492 2.802-1.343 2.802-2.833-.509-.139-1.77-1.62-1.77-2.438 0-.276.385-.529.502-.804-.75-.41-3.17-5.262-3.17-5.674 3.547 0 3.805-2.97 6.731-3.916v-1.08c-.771-.14-7.498 2.026-7.628 2.418l.269-.542c-.513.687-.642 1.36-1.408 1.36-1.907 0-2.665-2.572-2.665-4.587 0-2.695 2.028-2.174 4.174-2.174M1019.17 473.111c1.529 0 1.403.95 2.668.95.258 0 1.148-.95 1.388-1.483-.886-.394-.886-.808-2.024-1.233-1.137-.397-2.158.7-3.04-.25-.258-.263-.258-1.215-1.037-1.215-2.28 0-3.927-.293-5.315-1.758.249.121 4.572-.27 4.702-.944h-1.02l-3.813.532c-2.298 0-3.181-2.432-5.723-2.432-1.514 0-1.892 2.026-3.81 2.026-4.183 0-5.84-4.317-9.651-4.317-.766 0-1.268.813-2.03.813-.377 0-.637-.549-1.02-.549-.762 0-3.043 2.44-3.174 2.841 1.905 0 2.936 1.618 4.194 2.968 1.264 1.366 3.175 0 5.07.693 2.555.794 4.59.936 6.995.936 1.265 0 1.66 1.753 3.179 1.753 4.958 0 9.276.265 13.46 2.032-.125-.414-.38-1.363 0-1.363M1025.644 472.578h-1.148v1.36c0 .403.64.94 1.026.94.628 0 1.14-.537 1.279-1.351-.507-.266-.507-.95-1.157-.95M1136.024 462.987c-3.046-1.621-2.922-5.271-6.991-6.618-.63-.135-1.652-.266-1.652-1.35-1.516 0-2.28-1.892-3.803-1.892-2.832 0-6.723-1.392-8.632-2.836v-.146c-.061-.02-.17-.048-.256-.074-.126-.107-.275-.217-.38-.328l.285.3c-.64-.176-1.667-.544-2.198-1.101h-3.441c-.746-.415-1.761-2.033-3.295-2.565-.38-.147-1.394 0-1.51-.685-1.52.269-3.054 2.7-4.198 3.11-1.778.549-2.034.683-3.042 1.756-.255.273-1.41 2.285-2.284 2.285-.775 0-2.547-2.135-2.547-2.698-1.143 0-1.907-.53-1.907-1.203v-4.863c-2.29-.545-3.95-2.701-6.103-2.701-2.285 0-3.171 2.298-4.694 2.298-.766 0-1.784.403-1.784 1.199 0 1.905 3.055 1.086 3.943 2.99.119.397.386 1.077.77 1.208.624.133 1.134.412 1.765.412 1.4 0 2.289-.134 3.679-.543h.895c-.895 1.616-4.696 1.346-6.475 2.293.253 1.08 1.648.532 2.283 1.608.633 1.088 0 1.634.633 2.988.126.403.89.403 1.274.403 1.014 0 1.525-1.351 1.907-2.43v1.215c2.025-.68 2.804 2.83 4.705 2.83 2.027 0 5.457.678 6.855 1.353 1.27.683 4.834 2.164 5.322 3.785.644 2.025-.12 3.925 1.672 5.809-.771.408-3.184 1.085-3.184 2.699 0 1.083 1.14 1.083 2.025 1.083h2.682c0-.674 1.39-.807 1.898-.807 3.295 0 4.185 4.192 7.484 4.192h4.84c0-.958 1.135-1.488.63-3.256 1.786-.936 1.522-3.368 4.7-3.368 4.202 0 6.477 3.772 9.019 6.48.25.273 1.266.523 1.266 1.09 0 1.478 2.92 2.959 4.829 3.365h3.308c.253.275 2.155 1.627 2.408 1.627h.753c0-.945.892-1.627 1.659-2.167-.366-.134-2.292.134-2.527-.53-.268-.544-.517-1.362-1.278-1.626-.504-.13-1.257.41-1.517-.261-.262-.551-.644-1.498-1.024-1.498-.896 0-2.415-.677-2.788-1.344-1.023-1.62-.768-2.571-2.038-3.927-.246-.268-2.418-2.558-2.418-3.244 0-1.212 2.418-.664 2.418-2.155 0-2.98-2.666-1.484-3.941-2.162M1134.876 607.942c-.12 0-6.976-2.162-6.976 0 0 2.844 4.197 12.83 7.99 12.83 2.557 0 5.977-7.144 5.977-10.12 0-1.627-1.013-2.42-1.401-4.043-1.79.53-3.936 1.333-5.59 1.333M1098.684 585.381c1.141 1.218 3.048.951 4.445 0-1.79-.947-2.032-1.214-4.445 0" fill="#EDEDED"/><path d="M1157.238 538.912c-2.411-2.569-7.238-4.87-7.238-10.26-1.654 0-3.683 0-4.191-1.764-.522-1.889-.771-4.456-2.29-6.077-2.153-2.297-7.63-3.516-8.643-6.756-1.014-3.389-2.03-5.123-3.165-8.778-.64-2.179-.64-6.484-2.17-7.567-.502-.267-2.917-1.089-4.19-1.488-1.4-1.086-.761-3.518-1.27-5.396-.77-2.584-2.412-5.009-2.79-8.665-2.162 1.223-1.537 2.98-3.56 4.597v12.177c-.62 3.083-1.404 11.07-5.334 11.07-2.415 0-3.046-2.976-4.824-3.656-3.17-1.345-5.076-2.029-8.515-3.366-.497-.132-.497-2.174-1.263-2.704-.746-.54-2.551-.276-2.551-1.344l1.537-6.766c1.014-.809 2.906-.936 2.906-2.699 0-1.088-1.774-2.446-2.527-2.446-1.396 0-1.916 1.092-3.563 1.092-4.567 0-7.111-1.9-11.428-3.782.258 1.483 1.512 1.882 2.283 3.107-.378.121-1.388.941-2.283.941-2.166 0-7.244 1.218-7.244 3.104 0 1.901-1.902 2.858-1.902 4.736 0 1.221.379 2.162-.378 3.366-.257-.124-1.274-1.067-1.9-1.067-1.153 0-2.161.532-2.795 1.482-.265-2.428-1.544-5.13-3.815-5.13-2.67 0-3.308 2.702-6.727 2.702-.266 3.108-2.795 3.643-2.795 7.43-1.03 0-1.656-.54-2.666-1.08-.647 1.488 0 3.505-1.402 4.448-.517-.943-1.267-1.482-1.916-2.69-1.261.666-1.651 2.007-1.651 3.375v2.288c0 4.602-10.397 8.378-14.982 9.196-2.41.398-6.992.67-8.508 2.3-1.392 1.468-4.327 4.85-6.722 5.13 0-.412 0-.952-.143-1.355-.513.271-1.4.54-1.4 1.63v7.821c0 3.374 1.543 5.005 1.543 7.032 0 .674.359 1.215 0 1.752-.384-.405-.907-1.078-1.15-1.752-.392.674-.516 1.215-.771 1.752-.62 2.03 1.92 2.71 2.542 4.74 1.657 5.265 2.04 7.161 3.548 13.107.655 2.422 2.553 4.591 2.553 8.508 0 3.11-2.915 4.051-2.915 6.078 0 1.888 6.095 4.72 8.252 4.72 5.71 0 7.614-4.447 12.065-4.447 1.52 0 1.52-1.085 3.556 0 2.792 0 4.958-.69 7.62-.96 1.01-6.883 9.014-4.453 15.488-6.752 2.805-.94 3.692-3.093 8.259-3.093 4.19 0 11.689 1.336 13.723 4.05 1.01 1.49 3.817 8.105 4.7 8.105 0 0-.51 2.43 1.008 2.43 2.669 0 5.853-7.02 8.144-9.465.113 2.03-.52 9.054-3.701 9.74 0 .677.644 1.338 1.283 1.338 1.898 0 2.036-2.422 3.182-2.97 0-.414.25-.936.25-1.342.506.534 1.263 1.07 1.263 2.7 0 1.357-.517 2.15-.894 2.964h1.523c1.024-.259 1.659-.409 2.533-.939 0 .125.136.68.136.68.13 1.748 1.787 3.37 1.787 5.395 0 5.541 8.123 9.046 13.076 9.046 3.18 0 2.179-2.694 5.083-2.97.13.82 5.335 3.911 6.345 4.062 1.016-6.495 11.433-3.645 12.839-9.865v.262c0-4.728 2.673-8.907 3.683-12.16 1.277-4.314 3.562-5.669 5.85-9.452.633-1.072.25-1.609.884-2.695v-3.783c1.139-1.222 1.894-5.41 1.894-8.376 0-4.054-1.27-11.367-3.301-14.195l.135-.4zM1232.937 608.627c-.628.27-1.266 1.212-2.155 1.212-.766 0-.642-.943-.642-1.897-.384 0-.888-.407-.888-1.333-1.144.531-3.042 2.416-3.042 4.448 0 .272-.131.537-.131.812-1.005.132-1.781.401-2.284 1.486-.134.398-.134 1.345-.134 1.345s-1.79 2.978-2.404 3.242c-2.16 1.082-4.063 4.467-7.122 4.467-.887 0-1.526.811-2.027 1.755-1.273 2.013-5.078 3.913-5.078 7.427 0 .271.382.537.633.537 0 .672 4.946 2.702 5.716 2.702.756 0 2.276.675 2.79.675 1.402 0 3.685-2.02 4.839-3.236 0 0 3.544-7.828 3.928-9.465 1.012 0 4.072-.673 4.684-.673.267-1.623-.368-2.15 0-4.189 2.05 0 4.578-4.998 4.967-6.756-.504-.266-.75-.949-.75-2.034-.401 0-.77-.127-.9-.525M1249.196 592.821c-2.045 0-1.9 1.354-4.316 1.354-3.046 0-4.705-2.028-4.705-5.55h-.755c-.64 0-1.14.541-1.14 1.35h-.764c-.647-.669-2.17-3.643-2.17-4.312 0-.409.385-.537.522-.959-.759-.4-.759-1.34-1.54-2.15-1.26-1.36-3.426-1.487-4.82-3.78.766 3.236 2.53 7.695 5.463 8.238-.129.401-.384.943-.384 1.345 0 1.082 1.008 1.491 1.4 2.567v-.084c.191.693.516 1.804.516 2.645 0 2.03-.259 3.924-1.532 5.271-.643.678-1.787.812-1.787 2.17 0 2.43 4.704 1.343 4.704 4.051 0 1.628-1.516 2.295-1.516 3.92 0 1.085.76 1.755 1.907 1.755 2.66 0 3.422-2.71 4.691-4.738.25-.4 1.777-1.743 1.777-2.692 0-.404-.506-.953-.506-1.345 0-1.086 1.27-1.483 2.54-1.768.121 0 .241-.4.37-.4l.533.685c1.261-2.036.744-4.879 2.531-6.756-.249-.417-.64-.817-1.019-.817M1058.55 402.382c-.113.347-.027 1.989-.386 2.814-.36.694-2.429.189-2.472 1.829-.689.099-1.05.695-1.069 1.518-.23-.008-.448-.018-.692-.018-.808-.025-.546-1.898-2.047-1.91-2.084-.055-1.559 2.56-3.99 2.506-.25 1.174-.722 1.86-.737 3.03-.01.365.45.835.434 1.182 0 .48-.968 2.702-.048 2.71 1.286.015 1.116-3.847 2.291-5.008 0 0 .803.957 1.142 1.08.115-.12.36-.586.36-.586.222.24.457.597 1.151.602-.1-.351.018-.703.025-1.053l1.61.046c.114.346.338.817.445 1.179-.349.215-.582.578-.599 1.387-.037 2.248 1.322 4.138 2.946 4.17.343.005.795.124 1.155-.081-.003.334.221.952.572.952.813.008 1.29-.693 1.294-1.632.016-1.293-1.356-1.67-1.344-2.498.006-.695.587-.922 1.073-1.628.226.36.558.6.664.956l-.059-.286c.192.66 1.013 2.669 1.411 2.779.04-1.994 1.441-2.67 1.471-3.97.004-1.05-1.853-8.024-2.755-8.993-.46-.464-1.03-1.066-1.846-1.077M1037.91 382.259c-.018.699 2.049 2.135 2.513 2.15.35.006.585-.462.833-.8l.681.007-.014 1.173c-.231.242-.703.577-.71 1.282-.022.6.896 1.663 1.697 1.683.703.016 1.178-.68 1.869-.672 1.627.024 1.693 2.61 3.32 2.649-.328-.956-.673-1.44-.079-2.24.675 1.063 3.441 2.173 4.11 3.606.117.347.219.939.572.955.226.005.463-.468.468-.704 0-.352.013-.58.013-.936-.797-.014-1.5-.495-1.48-1.443-.228.112-.805.22-.805-.004.01-.61.581-.698.712-1.407-.224-.004-.45-.248-.682-.248-.473 0-.603.814-1.056.795-.707-.004-1.009-2.704-2.399-2.74-.687-.012-1.277.445-1.281.915-.007.116-.007.478-.018.578-1.261-.608-2.83-3.578-2.798-5.338.027-2.455 2.117-2.642 2.165-5.242.031-1.997-1.453-3.782-1.419-5.312.007-.23-.229-.602-.229-.825.014-.126-.212-.491-.212-.588-.459.214-.832 1.148-1.523 1.142-1.04-.024-.779-2.131-2.059-2.161-.928-.003-1.175 1.159-1.179 2.33-.043 1.409.522 2.368.5 3.777-.014 1.062-.274 2.699-.75 3.508-1.151-.255-.733 2.218-.76 4.11M1057.314 392.845c-.918-.027-1.607-.508-2.535-.527-.348 0-.692.347-1.047.444.2.959 2.762 1.819 2.721 3.462 0 .25-.364.693-.583.693-.127 0-.933-.01-1.518-.021l-.01.707c.118.344.913 1.556 1.725 1.562l-.02.702c-.47.687-.256 1.641.555 1.661.34 0 .696.013 1.038.013l.01-.707c-.454-.242-.905-1.427-.993-2.363l1.731.019c.117-.465.354-.809.494-1.51-.128 0-.904-1.082-.904-1.082s.122-1.174.018-1.867c-.232-.016-.463-.016-.695-.016.126-.356.013-.82.013-1.17M1047.36 395.143c-.15-.178-.33-.381-.495-.39-.233 0-.719.326-.719.568-.01 1.074.425 3.309.387 5.31 1.044-.685 3.746-1.693 3.764-3.701.014-.894-2.026-1.321-2.937-1.787M1050.856 398.594c-.583.11-1.214 3.038-1.23 3.38-.34 0-1.037.333-1.037.697-.018.82 2.04 3.094 2.502 3.101.217 0 .702-.349.702-.577.007-.712-.578-.486-.567-1.543.028-1.41 1.323-2.317 1.352-3.724.004-.7-.55-1.678-1.722-1.334" fill="#EDEDED"/><path d="M1051.947 403.205h.565c.038-1.767 1.56-2.32 1.591-4.439-.362 0-.714-.004-1.046-.004-.046 2.112-.746 3.047-1.11 4.443M1055.547 401.735c-.353.463-.924.213-1.48-.032-.38.707-1.085 1.043-1.092 1.737 0 .247.45.6.681.6 1.04.04 1.88-1 1.891-2.305M1053.113 395.226c.025-1.514-1.476-1.903-1.814-2.967l-1.035-.03c-.016.486-.016.94-.034 1.769.578.018 1.04-.09 1.63.034-.02.58 1.246 1.794 1.253 1.194M1043.873 393.068c.468 0 1.062-1.397.85-2.346-.334-1.417-1.6-1.208-2.98-2.172l-1.158-.012s2.595 4.512 3.288 4.53M1045.098 389.315c.222.239.915.143 1.155.029-.224-.233-.915-.14-1.155-.03M1043.44 340.452c-1.779 0-4.454 5.269-4.454 8.099 0 2.027-.389 3.79 1.903 3.79 2.92 0 5.712-11.89 2.551-11.89M1005.956 363.413c0-.798-.874-2.017-1.514-2.017-1.65 0-5.974 3.374-6.996 3.374-.63 0 0 1.22 0 2.035 0 1.75.888 2.688 2.81 2.688 1.89 0 5.7-4.19 5.7-6.08M1073.656 307.634c0 .67.641 1.482 1.268 1.482.386 0 .888-.55 1.525-.55-.25-.395 0-.808 0-1.212.124.678.257 1.49 1.016 1.762l-.505 1.881s-1.266 1.901-1.266 2.182c0 .536.755 2.143 1.771 2.143v-.807c0 .41 0 1.212.383 1.212 1.784 0 2.8-4.185 3.181-6.61.378.264.755 0 1.14 0-.248-.418 0-.946 0-1.359l-1.14-1.08c-.382 0-.13-.957-.13-1.353-1.524 0-2.29-1.078-3.307-1.078-.37 0-3.936 2.567-3.936 3.387M1085.352 308.7c1.65 0 1.907-2.158 3.04-3.374.381.134.896.949 1.898.949 1.274 0 2.804-4.726 0-4.726-1.77 0-2.15 2.3-4.316 1.608 0 .143-2.405 2.043-2.405 2.043 0 .659.247.935 1.012 1.47-.13.684.124 2.03.771 2.03" fill="#EDEDED"/><path d="M1099.057 292.221c-1.145 0-1.898 4.178-4.06 4.178h-7.876c-3.314 0-4.453 3.397-7.122 5.279-.487.269-1.64.538-1.64.952 0 .526.895.526 1.779.526 2.666 0 4.947-1.069 6.6-1.877 1.004-.555 1.783.123 2.797-.404.37-.15.508-1.08 1.276-1.08 1.523 0 2.284.808 3.816 1.212 0 .541-.391 1.483-.391 2.293 0 .401-.392 1.087 0 1.087.894 0 .761 1.065 1.777 1.334.643-1.334 2.162-3.505 3.044-3.505.382 0 .889 0 1.274-.129-.13 0-1.274-1.628-1.274-2.166 0-.4.382-1.077.768-1.077 1.144 0 1.028 2.298 3.676 2.298 1.02 0 1.78-.825 2.548-1.62h1.27c0 .274.392.668.635.668.506-1.885 1.654-2.024 3.428-3.236-.123.94-.633 1.075-.123 2.154 1.517-.526 1.517-1.882 3.057-2.71-.27-.806-.65-1.336-.65-2.565 0-1.738 1.408-2.559 1.408-3.784 0-1.482-.389-5.665.876-6.068.375-.139.77.137 1.16-.27v-.807c0-1.757 1.77-2.034 1.77-4.193 0-1.898-1.77-2.834-1.77-4.726 0-.94.12-1.747-.261-2.696-.13-.411-.63-.681-1.528-.681-.375 0-.133 1.226.257 1.226.131 0 .26.13.372.13-1.524 1.344-1.382-.41-1.634-.41-1.663 0-2.935 3.37-2.935 4.994 0 .678.5.678.5 1.623 0 4.325-4.309 10.002-6.974 10.952-1.52.543-1.777 1.877-3.693 1.877-.245 0-.633-.392-.633-.675 0-.543.273-1.072.633-1.488-.36.148-2.032 3.385-2.157 3.385M1113.417 262.094c-.253.944-2.287 1.896-2.287 3.382 0 .536.642.808.642 1.346v3.096h.737c1.026-1.076 2.058-.529 3.055-2.019-.49-.534-2.4-.534-2.4-1.887 0-2.29 2.153-.94 3.803-.94 0-.418.517-.954.884-1.082 2.178 1.486 3.44 1.751 5.46 3.106 1.022-1.62 1.92-4.718 4.584-4.718 1.898 0 2.793-.41 3.945-1.226-.51-.13-1.534-.942-1.534-1.752 0-.685.513-.943.764-1.633-.764-.526-1.657.276-2.664.276-4.953 0-6.48-4.323-9.905-6.75-.257.403-.777.811-.777 1.757 0 .535.653.798.653 1.347 0 1.755-.893 7.024-3.06 7.024-.372 0-.892.13-1.272 0l.265.269c-.396-.269-.647-.41-.893-.668v1.072zM1131.711 258.042c-.264.408-.377 1.204 0 1.204 1.135 0 2.664-2.005 3.164-2.833l-.426-.355c-.996.121-2.257 1.226-2.738 1.984" fill="#EDEDED"/><path d="M1134.244 255.886l.205.172c.061-.01.123-.05.177-.05l-.382-.122zM1123.196 212.103c-.506-1.752-1.527-3.51-1.527-6.209h-.882v2.846c0 .67-.515.941-.515 1.745-1.894.401-2.675 4.053-2.675 6.892 0 2.024 1.925 2.834 1.925 4.868v7.975c0 1.62-.65 2.154-.65 4.188 0 1.616.772 1.874.772 3.78 0 2.024-.515 3.637-.515 6.081 0 .661-.37 3.913 0 3.913 1.532 0 1.532-2.983 3.053-2.983h1.262c.134.548.769 1.494 1.273 1.367.133 0 .388-.14.388-.14-1.023-2.308-3.692-3.784-3.692-6.894 0-3.508.393-7.838 3.817-7.838 1.129 0 2.038.814 2.669 1.771-.757-3.245-2.418-5.957-3.437-9.33-.25-.807-1.142-2.307-.884-3.647v-3.245c-.888-1.9.122-3.247-.382-5.14M792.96 103.083s3.42-.135 3.81 0c2.147.673 1.017 2.842 1.907 4.73.24.677 2.283 0 3.166 0 .386 0 .637.82.884.95h9.92c-.123-.263-.27-.452-.416-.66-2.812-2.679-6.954-3.904-6.954-8.802 0-8.642 8.766-17.696 15.244-19.586 2.281-.676 2.918-3.66 6.095-3.66 1.523 0 2.036-2.7 2.8-3.102 4.184-2.162 7.35-1.078 11.806-3.366 3.18-1.62 12.952-2.436 12.952-7.038 0-1.479-3.558-3.377-5.08-3.377-6.349 0-12.328 7.704-19.059 7.704-1.519 0-2.28-1.623-3.804-1.623-2.419 0-2.419 1.623-4.058 1.623-4.702 0-8.26 6.478-11.434 6.478-1.912 0-3.174.954-5.073.954-.895 0-1.272.806-1.272 1.36 0 .802.883 1.341.883 2.424 0 3.787-6.6 5.804-6.6 8.103 0 1.082 1.776 1.356 1.898 2.972-2.033.542-6.096 1.492-6.096 3.792v2.017c0 2.431-3.806 2.165-3.806 5.406 0 1.62 2.287 2.701 2.287 2.701" fill="#EDEDED"/><path d="M812.136 107.95c.033.045.066.107.096.154.133.13.288.247.413.387l-.509-.541z" fill="#EDEDED"/><path d="M964.839 394.12c.183-.202.348-.435.348-.702 0-.44-.299-1.747-.698-3.203.406 1.456.702 2.765.702 3.204 0 .278-.165.5-.352.701m-2.31 4.918c.48-1.275.905-2.485 1.641-4.14-.734 1.657-1.161 2.875-1.641 4.14m-2.295-17.114c0-.409.122-.809.122-1.222v.037c-.007.405-.122.785-.122 1.185 0 1.494 1.401 2.166 2.285 3.11-.891-.944-2.285-1.612-2.285-3.11m1.401 19.33h-.003a36.61 36.61 0 0 1 .003 0M789.146 259.388c2.408 4.451 5.834 6.218 5.834 11.488 1.024-.538 3.441-1.882 4.322-2.035.136 2.035 2.159 3.121 2.159 5.143h-3.796c-1.151 0-2.29 1.342-2.549 3.38 2.671.39 4.451 3.103 4.451 5.662 0 1.501-.89 1.904-.89 3.113 0 1.215 1.139 2.697 1.254 2.844v2.42c-1.51.418-3.803.817-5.966.817-1.638 0-4.819.264-5.836-.817-.759-.796-1.013-2.15-2.158-2.425-1.406-.274-3.051.54-3.684-.946-.754-1.619.376-2.713-.639-4.323-.624-1.086-1.654-.938-1.654-2.298 0-.266-.124-.543 0-.81-.499-.532-.499-1.63-.89-2.432-.87.148-.758 0-1.768.414-1.907.67-1.782 3.1-4.569 3.1h-.002c2.789-.004 2.664-2.43 4.562-3.1 1.019-.414.904-.266 1.777-.414.391.802.391 1.9.896 2.431-.13.268 0 .545 0 .811l1.784.272c1.52-2.172 1.52-5.404 3.545-6.479-3.415-2.03-8.623-10.134-8.623-14.735 0-1.355-2.804-3.382-2.804-5.41 0-.663 2.406-5.665 3.055-6.474.628.406 4.444-1.893 4.827-2.027 3.292-1.35 5.332-2.296 9.519-2.296 6.867 0 7.999 3.516 10.546 7.57-1.918 1.62-4.44.124-6.733.124-3.435 0-8.501 3.528-8.897 3.375.131 2.71 2.16 2.568 2.927 4.057m-57.843 63.148c-.009-.113-.035-.216-.053-.325l.066.161c-.007.051-.013.11-.013.164m-20.659-190.134c0-2.3 2.297-3.378 2.297-5.677 0-2.97-4.45-2.837-4.45-5.403 0 2.566 4.459 2.433 4.459 5.403 0 2.3-2.294 3.377-2.294 5.677 0 2.561 2.537 4.05 2.537 6.747 0-2.697-2.549-4.186-2.549-6.747m555.06-8.374c-10.033-6.22-23.366-12.834-38.102-12.834-4.054 0-6.887.9-6.347 2.691 3.925 13.118-5.851-.128-8.275 0l-29.202-.66c-1.654-7.032-5.974-9.47-14.602-9.47-4.711 0-11.809 1.896-14.608-.672-2.534-2.296-2.669-5.544-6.359-6.76-7.744-2.695-16.112-4.717-26.038-4.717-9.909 0-11.294 5.528-12.071 10.803h-20.311c-3.559 0-4.058-3.109-8.254-3.38-.398 1.897-1.143 6.083-3.177 6.083-5.335 0-7.613-7.023-7.613-10.807 0-.949 10.248-7.829-15.885-10.132-3.286-.305-5.087 1.21-5.087 5.393h-13.967c-4.187-1.209-26.171-3.917-28.96-8.776-16.67 14.465-12.955 5.408-12.955 5.408 3.932-5.263 42.326-16.279 10.799-24.322h-13.349c-1.262-3.778-4.054-7.43-9.512-7.43-6.609 0-9.278 5.267-12.706 8.107-2.535 2.03-18.956 9.056-17.528 2.697-4.187 1.354-22.072 2.651-31.364 11.494-1.959 1.85-2.549 7.43-5.471 7.43-4.187 0-19.937-1.625-19.937 6.082 0 1.614 1.412 3.23 1.896 5.4-2.791 1.883-3.794 0-12.69 0-7.536 10.737-6.856-1.625-8.637-4.05-.65 4.314-3.296 6.208-6.605 8.098 1.015 3.791 6.429 7.72 2.531 12.166-2.671 3.06 5.175 13.11 1.04 13.11-5.333 0-6.756-20.413-6.756-24.599 0-4.597 7.072-6.475-3.804-8.775-5.472-1.157-15.878 8.374-15.878 13.506 0 6.215 2.664 10.272 5.721 13.508 7.062 11.761-9.827-1.363-16.114-3.098-17.395-4.795-11.788 1.487-11.827 2.424-.562 10.407-4.711 2.026-6.998 2.026-3.936 0-11.988 5.682-17.785 2.702-2.913-7.964-21.96 10.136-26.658 10.136-1.525 0-3.733-1.19-3.173-2.708 1.962-5.457-.879-17.286-6.359.676-.356 1.156 1.901 1.624 1.901 4.048 0 4.738-6.6 1.49-10.157 2.704-3.557 1.225-1.822 14.13-16.511 7.441v5.405c-7.24-.688-6.348-8.924-8.892-12.846 5.463 0 8.446-.179 13.73 1.295 7.054 1.97 21.272-7.429-.396-14.797-6.207-2.114-19.942-9.459-24.129-9.459-.382 0-.511-.539-3.432-.137-.393-.002-3.053-.402-4.197-.547 0-.804-.88-.93-2.153-2.015 2.922-1.087 3.932 0 5.08-3.243-1.015-.552-3.807-2.16-4.438-2.16-1.019 0-1.532.941-1.914 2.022-1.401-.143-1.145-1.354-1.27-3.112-2.031 1.347-3.033 1.89-4.826 3.781-.129-.812-.129-1.483-.636-2.434-2.166 1.227-2.921 4.328-5.461 4.06.517-1.883 2.675-2.438 2.675-4.318 0-1.762-4.824 1.61-6.742 1.61-1.137 0-1.899-1.078-2.667-2.023-.38.806-2.655 1.355-2.655 2.022 0 .95.888 1.221 1.902 1.627-2.299 1.35-4.453.544-6.103 3.787v-2.295c-2.659.133-3.052 3.238-4.7 3.637v-1.607c-1.912.393-4.183.265-5.452 1.607.499.553.375.404 1 1.088-.885.535-1.64.265-2.537.265-1.272 0-2.275 1.087-2.917 2.168 1.138-.134 1.138 0 2.034.268-.254.136-1.661 3.372-2.299 3.372-1.627 0-2.148-1.349-4.176-1.349.374-.94.252-1.626-.388-2.425-.382.402-.759.942-1.144 1.747-.377 0-.626-.394-1.016-.394-1.001 0-1.654.801-1.905 2.154 0 0 1.274.406 1.905.406-.502.271-1.905.944-2.549 1.897 3.059 0 4.327-1.76 7.5-2.44-.633 2.837-4.194 7.436-6.856 8.514-2.658 1.08-4.44 2.971-5.971 5.675 0 .131-1.271 3.102-1.271 3.102-1.013 0-.764 4.188-2.284 5.402-3.812 3.253-5.97 7.971-11.557 9.462 1.143.274 1.651.543 3.051.948-4.573-.546-5.073 2.707-7.365 3.376-2.797.803-4.2 2.435-5.722 4.73-.762 1.221-2.785 1.084-2.785 3.11 0 3.781.242 7.163 2.153 9.597-.636.938-2.036 2.561-2.036 3.498 1.529-.664 1.529-.664 3.309-.664v2.018c-.507.276-2.17.953-2.17 2.033 0 .532 4.96 3.782 5.723 3.782 5.334 0 9.406-5.128 12.065-9.189.832 1.267 1.153 2.4 2.542 3.2-.276.507-.637 1.278-.637 1.94 0 2.42 1.912 2.974 2.54 4.983.889 2.976.644 4.871 2.798 7.17 0 .403-.249.942-.249 1.364 0 .665 1.77 6.335 2.79 6.335 3.171 0 3.934-4.328 6.102-4.328h3.427c.374-2.56 3.426-2.827 3.817-6.477-.773-.147-1.912-.686-1.912-2.293 0-2.842 1.01-6.755 3.553-6.755 1.265 0 5.081-3.383 5.081-5.409 0-2.562-3.434-4.995-5.725-5.407 0-.945-.373-1.89-.997-2.418v-2.71c1.896-.95.624-3.514 1.641-5.404 1.265-2.425 3.552-2.976 5.716-4.32 2.662-1.628 8.51-4.329 8.51-7.434.382-.83 0-1.485 0-3.11 0-3.78 3.426-5.404 7.615-5.404 3.189 0 7.363.673 7.363 4.05 0 2.296-3.038 2.98-4.816 4.054-3.295 2.028-6.101 9.458-11.432 9.458.251.938 0 1.757 0 2.706 0 1.478 1.135 4.588 2.412 5.133-.376.67-1.779 1.617-1.779 2.981 0 2.83 2.8 4.71 5.468 4.71 0 1.495 1.146 1.764 2.784 1.764 2.161 0 5.081-1.21 7.625-2.025 2.413.401 8.259 0 9.524-2.708 1.022 1.491 2.296 2.172 3.175 4.733-1.521 1.081-5.331 2.977-6.976 2.977-2.169 0-3.568-.955-6.351-.955-2.798 0-9.19 2.744-7.241 4.675 6.413 6.374 3.051 8.841 1.515 8.841-2.534 0-2.909-3.383-5.082-3.383-2.281 0-5.085 6.215-5.085 9.461 0 5.268-4.067 4.552-4.316 9.278-1.473.156-3.026.31-4.569.31 0-.262.256-.952.511-1.482-.888-.406-2.671-.543-4.32-.543-1.533 0-3.555 2.024-4.705 2.56-1.89.954-3.552.548-5.704 1.64-.642.266-.772 1.203-2.16 1.203 0 0-2.157-1.62-2.157-1.889 0-.406.626-.809.754-1.49-2.917-.395-5.333 2.707-8.765 2.707-.376 0-.629-.948-.887-1.623-1.142 0-1.649-.549-3.058-.549.143-.395 0-.664 0-1.486-.752-.129-1.387-1.073-1.387-2.414 0-2.438 1.53-3.656 2.796-5 .382-.413 1.528-.686 1.528-1.352v-1.08c-1.021 0-2.417-.128-2.417-1.492 0-1.348.129-2.157.763-3.506v-1.627c-3.184 2.432-8.135 2.834-8.135 8.504 0 3.247 2.033 4.325 2.547 7.967 0 .14.885 2.71.885 3.393 0 1.075-2.035 2.292-2.798 2.292-1.143 0-2.283-.814-3.173.14-.256.268-.639 1.346-1.017.936-.885.41-.122 0-1.775 0-2.914 0-4.702 2.17-6.476 4.053-.136.143-1.274.951-1.274 1.49 0 1.617.385 3.244-.638 4.327-.504.538-5.579 2.696-6.34 2.96-.637.144-1.024.277-1.781.277-.771 3.24-1.774 6.217-5.593 6.217-.251 1.078-1.137 2.016-2.161 2.016-1.521 0-2.791-.662-3.808-1.753h-1.275v1.091c.136.406-.247 2.431.641 2.705v.938c-.505.135-1.909.678-2.914.678-1.03 0-3.052-.543-3.439-1.356-1.269.407-4.819 1.224-4.819 2.431 0 .137 0 .537.123.537 0 2.033 5.593 3.111 7.62 3.791.633.128.763.814 1.52.948 0 2.16.762 4.581 3.303 4.581 0 1.09.764.818.764 2.042 0 .535-.254 1.484-.507 2.02l.245-.21c0 .814.131 3.178.131 3.728 0 2.564-1.642 3.36-1.642 6.081-.385 0-2.294.661-3.181.661-1.264 0-2.029-.939-3.557-.529h-6.096c-.629-.132-1.649-.275-2.16-.82h-5.711c-.758.271-1.405-.538-1.909-.538-.757 0-5.078 2.843-5.078 3.642 0 1.224 1.391 3.11 1.391 5.156 0 3.507-1.139 7.008-1.139 10.392 0 .938-1.391 1.352-1.391 3.096 0 1.09 1.011 1.893 2.033 1.893v5.405c0 .412.246 1.08 1.006 1.08 1.914 0 3.31-.932 5.464-.932 2.919 0 3.051 4.992 4.949 4.992 2.798 0 4.451-2.698 7.497-2.698.643 0 2.793-.672 3.941-.282v-.12c2.539.804 2.798-2.583 4.318-3.386 2.665-1.352 3.425-2.976 5.079-5.672-.633-.28-1.274-.683-1.274-1.756 0-2.967 3.685-8.505 5.971-9.048 2.673-.669 5.468-1.626 6.23-4.33l-.762-2.962c0-2.042 2.024-3.387 3.932-3.387 2.547 0 4.313 1.481 7.116 1.481 2.799 0 4.443-2.424 6.858-3.64 1.146-.55 1.279-2.3 3.556-2.3 4.829 0 5.591 5.54 7.868 8.647.261.946 2.166 1.481 3.062 2.43 2.154 2.3 3.039 3.521 6.98 4.457 0 .812 1.905 1.382 2.414 1.382.128.817 3.183 4.037 3.543 4.037.267 1.21 1.277 1.752 1.277 3.766 0 1.626-.62 3.653-2.152 3.653 0 .543.515.941 1.401.941 1.77 0 1.521-2.836 2.658-4.054 0 0 1.658 0 1.658-.672 0-1.755-2.288-2.152-2.288-3.913 0-1.344 1.265-2.169 2.786-2.169 2.047 0 2.804 1.765 4.085 2.024.368-2.834-2.678-3.909-5.222-5.262-.768-.394-3.817-1.079-3.295-2.714.242-.26.242-.656.242-1.076-1.902 0-3.172.697-5.077-.27-1.019-.53-1.908-2.689-2.407-4.587-.384-1.215-1.403-3.515-3.309-4.185-1.526-.554-2.668-1.35-2.668-3.387 0-.794.257-1.618.518-2.425-.261 0-.644-.545-.644-.809 0-1.484 2.794-1.484 4.195-2.432.753.82 0 3.65 1.657 3.65h3.81c0 3.105 3.161 7.702 5.959 7.702h1.783c0 1.886 2.034 2.018 3.814 2.972 1.774.941 4.574 3.771 4.574 5.67v3.523c0 2.823 2.02 4.054 3.559 5.667 1.145 1.21 2.144 2.44 2.659 4.317 0 .28.255 1.49.759 1.49h2.165c-.38.676-1.647 1.088-1.647 2.03 0 2.281 1.772 4.453 3.812 4.453h1.767c-1.272-.674 0-2.298 0-3.099 0-1.089-.377-1.495-.753-2.296v-1.089c.629.677 1.905 1.758 3.295 2.03h.255c.254-.94 1.519-.412 2.161-.813-.255-.276-.502-.814-.502-1.217-1.016 0-4.456-3.366-4.456-3.785 0-.4.389-.812.504-1.615l-2.395-2.973c0-.669.746-1.494 1.39-1.494 1.149 0 1.396 2.024 3.298 2.024.254-1.08.254-1.88 0-2.97 1.659-.536 2.161-1.749 4.197-1.749 2.277 0 3.426 2.695 5.33 2.695 1.647 0 2.034-1.75 3.684-2.562 1.147-.538 2.027 0 3.172-.409.642-.129 1.146 0 1.661-.543-.771-1.213-4.203-3.094-4.203-5.798 0-1.898 2.289-4.59 3.561-5.946v-3.516c.38-.803.321.291.804-1.904 0-1.356 1.361-2.013 2.631-2.282-.138-.679 0-1.343-.138-2.027 2.791-.812 3.053-4.324 5.852-4.324 2.287 0 8.122 10.136 9.9 10.136 1.785 0 7.882-2.847 8.889-4.198-.25 0-3.552-.54-3.552-.54-.504 0-2.157-.39-2.157-2.028 0-1.07 9.266-4.72 12.703-6.069 0 0-1.645 2.024-2.287 2.3.245.805 3.569 4.47-3.814 6.48 3.182 7.964 17.786 6.615 17.786 17.278l.504-.08c.048-.019.108-.03.147-.052-2.251 1.01-3.754 3.113-6.37 3.113h-7.231c-1.41-.129-6.354-1.065-6.354-2.686-2.927 0-2.789-2.04-6.228-2.04-2.16 0-5.719.134-7.364 1.217-1.403.942-3.686 2.695-5.215 2.695h-3.928c-.646 0-3.057-.532-3.057.685 0 .941.766.538 1.012 1.618-2.273 1.215-11.427.412-11.427 4.584 0 .828 1.27.687 2.16.687-.255.678 0 .678 0 1.624 0 2.56-1.392 2.3-2.655 3.648 1.765.943 3.161.806 4.303 2.564-1.266 1.35 2.408 3.385 3.175 4.19-.118.264-.631.68-1.01.8h1.394c2.418-1.21 3.692 2.438 6.105 2.438 2.276 0 1.765-3.1 4.44-3.1 2.672 0 3.679 3.366 6.348 3.366 3.688 0 4.325-1.753 6.35-3.367.506.543 1.272 1.073 2.546 1.073 1.013 0 1.399-.8 2.406-1.21v1.351c-.253.26-.88.54-.88 1.357 0 1.613.627 3.5.627 5.796 0 3.111-2.533 3.778-3.303 6.48-.753 2.712-1.134 4.201-2.027 7.172-.126.543-1.019.543-1.019 1.481l.696 1.78c-.151-.317-.309-.624-.432-.963-1.672.4-1.672 1.072-3.561 1.072-2.8 0-4.2-1.744-6.609-1.744-3.937 0-5.211 2.013-9.269 2.013-4.445 0-10.173-2.013-14.225-3.639-2.027-.815-4.956.27-6.097-1.365-.504-.804-1.913-1.208-1.913-3.095h-2.787l-.38-.265c-3.942 1.343-6.995 1.343-6.995 5.665v2.7c0 .672-1.39 2.027-2.54 2.027-9.391 0-12.315-10.809-20.563-10.809h-3.565c-2.421 0-5.723-2.978-5.723-6.342 0-2.04 1.656-3.107 1.656-5.13 0-1.22-1.656-1.762-1.656-2.979 0-1.763 1.785-1.48 1.911-3.51-.759.142-1.137.81-1.911.81-2.02 0-1.391-2.426-3.8-2.426-2.419 0-2.541 2.015-5.075 2.015-1.405 0-2.172-.935-3.814-.935-1.905 0-3.948 2.02-5.346 2.02-1.01 0-2.659-1.342-4.439-1.342-5.718 0-15.109 3.776-20.064 6.346-1.528.803-2.033 2.424-4.701 2.424-4.321 0-7.628-.946-10.8-3.376-1.271 1.078-1.527 2.307-2.542 3.646h.26c-3.179 4.18-7.499 8.383-10.803 12.835-2.535 3.384-.634 5.543-2.158 10.537-.632 2.17-3.808 4.866-5.715 6.085-2.287 1.358-5.587 1.082-7.36 3.643-3.052 4.468-6.864 11.62-8.512 16.887-.633 2.158-3.562 3.79-3.562 6.5 0 5.384 2.537 9.176 2.537 15.128 0 3.376-2.537 10.67-5.332 12.158.893 1.874 1.905 2.556 1.905 4.454 0 1.21.644 2.282.644 4.323h-.392c.638.82 1.023 1.075 1.656 1.886 0 .541 6.731 6.884 7.625 7.57 3.172 2.696 3.933 5.941 6.343 9.854 2.672 4.32 10.032 8.914 13.597 11.761.514.408 2.282 1.07 3.805 1.07 4.955 0 7.121-2.696 12.072-2.696 2.53 0 5.715 2.034 7.623 2.034 1.903 0 2.537-1.769 4.442-2.433 4.834-1.625 9.535-4.724 15.87-4.724 5.216 0 6.103 7.82 9.916 7.82h5.338c4.304 0 6.605 2.708 7.998 5.68-1.275 1.082-1.275 5.128-1.275 6.761 0 .527-.506.807 0 2.02-.889.54-2.918 3.923-2.918 5.41 0 6.347 7.236 11.067 10.548 15.543 1.644 2.288 1.145 5.398 2.152 8.096 1.273 3.372 2.283 5.404 3.179 11.21.386 2.965 1.656 4.322 1.656 7.692 0 7.165-8.008 9.468-8.008 18.92 0 8.781 3.807 13.924 7.366 20.272 1.019 1.896 2.538 2.56 2.538 4.452v3.653c0 11.876 5.845 19.851 10.424 28.101.626 1.202 4.184 5.261 4.184 7.423 0 1.488-.639 2.571-1.653 3.655 1.014 1.088 2.281 4.057 2.281 6.758.269-.145.511-.549 1.273-.69.775 1.5 1.914 2.722 4.074 2.722 4.824 0 7.997-4.065 13.328-4.065 1.401 0 2.171 1.342 3.558 1.342 1.148 0 2.159-.795 3.804-.928.391-2.435 3.568-1.354 5.725-2.435 5.214-2.704 6.61-6.489 9.787-10.804 2.018-2.7 2.275-5.829 5.084-8.78 1.512-1.648 5.066-4.608 5.066-8.385 0-1.215-.77-2.169-1.898-2.83 1.524-3.39 3.306-4.732 6.345-6.36.886-.394 3.049.128 3.808-.953.771-1.217 1.026-5.657 1.026-7.827 0-4.049-3.559-6.077-3.559-9.053 0-1.489 2.043-3.778 3.807-4.052 1.394-8.904 18.163-7.692 18.163-18.225 0-1.105-.248-1.913-1.019-2.714 0-3.787.376-6.347.376-8.514v-3.373c.131-.27.903-1.213.903-2.037 0-2.564-4.713-4.849-4.713-9.444 0-4.058-1.006-5.94-1.006-10.12 0-3.814 3.308-4.753 4.187-8.115 3.184-12.038 12.202-14.182 20.577-21.222 4.707-3.912 6.347-8.785 10.157-14.183 3.18-4.6 8.897-14.59 8.897-22.297 0-.799-.509-1.215-.888-2.019-4.568 1.22-9.146 3.241-13.974 4.056-1.907.274-3.173-.69-5.083 0-1.647.53-1.776 2.287-3.816 2.287-2.144 0-3.81-4.324-5.45-5.672 1.269-1.61.059-1.95.059-4.254-4.17 0-5.263-5.6-7.295-7.229-2.302-1.754-3.692-1.88-5.715-4.05-2.288-2.42-.892-5.946-3.181-9.183-1.905-2.714-4.449-2.714-5.719-6.347v-7.169c-1.903-1.609-5.708-7.57-5.071-10.394l-12.078-22.698v-2.298c2.16 2.298 4.323 8.373 6.998 8.79.4-1.318 1.779-4.78 2.312-6.726-.26 1.647-.664 3.368-.664 4.287 0 .403 1.769 2.56 2.16 3.234 1.385 2.3 2.671 4.334 4.178 6.76.511.807 1.403 1.882 1.778 3.248.269.806 0 2.831.773 3.65.375.392 2.023.13 2.533.67.38.407 1.029 1.222 1.652 1.75.517 2.57 2.163 3.25 2.163 6.351 0 5.135 1.059 7.905 5.495 8.978 0 3.25 3.518 7.914 5.05 9.527 1.393 1.49 3.532 2.696 2.898 5.683-.261 1.212-1.243 3.776.146 3.895 0 2.586.916 4.801 2.235 6.921.836 1.337-.16 1.341.154 1.51.348.178 3.584 1.86 3.97 1.86l.795-.509c2.667 0 3.005-1.108 5.171-2.734h3.934c1.652-.815 6.733-4.606 8.254-5.006 3.057-.81 6.992-1.754 9.902-3.237-.246-.273-.491-.814-.491-1.214 0-2.976 7.735-4.473 11.175-5.144 0-1.616 2.408-3.906 3.547-3.906 1.916 0 1.77-3.917 3.692-3.917 1.521 0 1.386-2.298 1.897-3.927.513-1.619 1.776-2.159 3.681-2.159 0-3.245 3.687-4.322 3.687-7.424 0-1.218-1.776-.954-2.42-2.172v.137c-.881-.544-1.006-2.842-2.407-3.234-3.68-1.22-6.098-1.905-7.872-5.817v-4.994c-4.572 3.647-5.211 9.19-13.719 9.19-1.914 0-5.201-.949-5.201-2.84 0-1.625.881-2.703.881-4.329 0-.54 0-.944-.126-1.482-1.273.267-1.02 2.025-2.538 2.428-.126-1.215-.877-1.626-.877-3.104-2.922-.684-6.485-6.48-7.247-9.72-.268-1.092-.268-1.758-.268-3.116 0-1.893.766-4.317 2.544-4.317 3.559 0 6.358 4.193 7.76 7.156.251.543-.129 1.623.626 2.434 1.398 1.48 3.43.664 4.946 2.297 1.276 1.346 2.296 3.102 4.334 3.787h6.352c.757-.814 1.268-2.034 2.669-2.034 2.655 0 2.655 4.061 3.918 5.402.138.142 3.818 1.215 4.458 1.215 3.419 0 9.016 1.627 11.428 1.627.126 0 .639.131.639 0l4.449-.272c.251-.264.622-.67 1.126-.948l3.301.948c1.288 0 1.663-1.07 3.184-1.07 1.409 0 2.415-.285 3.812.122 1.523.54 2.282 3.65 3.308 5.408 1.261 2.03 4.955 4.72 7.484 4.72 1.017 0 1.923 0 2.933.28-.518.54-.642 1.747-1.652 2.02-1.148.417-2.032-.273-3.172.543 1.891 2.024 3.427 6.212 7.364 6.212 3.29 0 3.426-4.585 5.077-6.338h1.004c0 .527-.753 1.48-.753 1.874 0 1.77 1.266 3.382 1.266 5.55 0 1.684-.561 2.046-.611 3.853l-.097-.099c0 .392.195 1.515.195 1.913 0 2.572 1.408 5.148 2.162 7.835.899 2.99 3.191 7.447 3.812 9.471.517 1.74.517 2.556 1.53 4.323 1.01 1.601.384 3.368 1.394 5.53.517 1.082 2.289 2.445 2.806 4.315.88 2.836 2.274 5.538 3.291 8.794.131.4.511 1.352 1.138 1.352.139.945.896 1.486 1.91 1.36 1.019 0 1.146-1.63 1.649-2.712.649-1.344.895-.823 2.409-1.63 1.024-.542.642-4.05 2.427-4.59.378-.132 1.27-.132 1.27-.53l.626-.145-.626-3.516c0-2.563 1.526-4.727 1.526-8.097 0-2.167-.9-3.518-.9-5.943 0-2.844 2.675-3.237 4.956-4.056.896-.269 2.296-1.895 3.307-2.987 2.418-2.553 4.687-5.272 7.241-7.965 2.035-2.15 5.708-2.827 8.001-5.26 1.139-1.217 1.019-2.705 1.512-4.6.395-1.2 3.053-1.347 3.949-3.376 1.018.686 1.018 1.35 3.049 1.35 3.303 0 6.853-.81 6.853-4.863 1.914.411 4.072 1.218 4.576 3.11.504 1.613.251 3.78 1.266 5.406 1.026 1.756 2.42 2.828 4.196 4.322 1.27 2.164 2.802 4.312 3.679 7.161.126.67.764 1.09.764 1.753 0 1.484-.638 2.291-.638 4.054 0 1.754.133 3.381 2.031 3.381 3.562 0 4.456-3.927 6.612-6.215.768.803.384 1.35 1.133 2.162.257.276 1.283 0 1.66.672 1.275 2.028-.89 6.078.757 6.078 0 4.34 3.304 7.83 3.304 13.79 0 1.475-1.017 4.563-.004 5.132h-.633c-.38 1.89-.629 3.23-.629 5.12 0 .282-.253.821 0 .821 1.155.813.383 0 1.644 0 2.044 0 2.924 4.86 3.814 6.755 1.403 3.113 1.66 5.942 2.792 9.861 1.404 4.461 4.958 8.512 8.901 9.865.762.265.879 1.21 2.147 1.21.395 0 .513-.543.89-.543.518 0 .644 0 1.654-.124-.619-1.489-.619-2.16-1.136-3.927-.518-1.618-2.413-2.434-2.413-4.858 0-1.217.504-1.217.504-2.575 0-6.752-7.492-7.567-10.928-11.215-.893-.937-1.008-3.376-1.512-4.316h.242c0-3.928-4.318-2.302-4.318-6.493 0-3.64 3.69-4.714 3.69-8.77 0-1.089-.513-1.347-.513-2.576 0-.663-.251-1.472.768-1.472 1.396 0 2.915.26 3.297 1.75 0 0 .384 1.747.642 1.747 2.024.685 3.807.82 5.579 2.698 1.536 1.641.131 3.65 2.933 3.65 0 2.043 2.546 2.692 4.436 2.692.13.7.382 1.774.89 2.045-.508.271-.508.801-.508 1.885 0 .828.508 2.711 1.027 2.711.497 0 3.033-2.026 3.033-3.375v-1.492c0 .411 0 1.225.388 1.225 1.523 0 1.261-2.166 2.796-2.999 3.299-1.745 3.683-3.219 7.753-4.309 0-2.422 1.527-3.64 1.527-6.756 0-4.454-2.047-10.399-5.089-12.559-3.185-2.157-4.451-5.674-7.375-8.79-.504-.523-1.141-.8-1.141-2.013 0-5.804 6.228-6.765 8.759-10.956 2.173 1.09 3.694.276 6.11 1.49-.12.69-.516 3.383.63 3.383 1.394 0 .633-1.757 1.658-2.836.88-.948 3.419-1.339 4.443-1.889 2.411-1.224 4.822-.68 6.345-2.299 0 0 1.274-2.572 1.528-2.572 1.27 0 1.913 1.091 3.179 1.091 5.848 0 7.24-3.784 10.801-5.957 1.006-.529 1.657-1.072 1.9-2.427 3.042 0 3.917-5 5.076-7.566.766-1.633 4.196-7.022 6.099-7.43 0-2.965 1.902-4.32 1.902-8.232 0-5.816-1.27-7.966-3.545-11.623-.395-.669-.395-2.3-1.536-2.978l.139-.126h-.266s-.127-2.173-.127-2.57c-1.026-.14-3.432-1.487-3.432-3.384 0-1.626 2.162-1.759 2.676-3.374 1.149-3.64 6.593-3.64 9.137-6.352-1.014-1.486-2.923 0-4.704-1.218-.877-.534-1.381-1.615-2.796-1.615-1.014 0-1.014 2.98-1.775 2.98-1.006 0-2.276.396-3.293-.286-1.527-1.079-1.026-2.422-2.537-3.642-.507-.418-2.676-.955-2.676-2.296 0-2.84 3.686-1.89 5.46-3.239 1.525-1.23 4.446-3.242 5.47-4.998.26-.417.766-1.758 2.034-1.758 1.01 0 2.413 1.758 2.413 2.554 0 2.172-2.413 3.11-2.413 5.55 3.543 0 6.46-4.055 10.535-4.055 1.525 0 2.155 1.476 4.071 1.476-.634 1.365 0 1.365 0 2.98 0 1.345-1.403 1.21-1.403 2.831 0 .682.387 2.295 1.265 2.295.389 0 .889-.648 1.781-.648 1.534 0 3.428 1.07 3.428 2.678 0 .954-1.008 1.758-2.032 1.758v1.365c.26.264.513.805 1.273.938 0 .818.632 1.487.632 2.296 0 .406-1.134 2.154-1.134 3.116 0 .537 0 1.214.637 1.34-.135.681-.768 1.085-.768 1.767h1.914c.764-.814 1.006-.814 2.519-1.229 0-1.214 3.18-1.34 3.948-1.615 1.785-.54 2.544-2.026 2.544-5.13 0-5.275-1.9-8.394-4.695-11.353-1.148-1.215-2.425-2.43-2.163-4.726 1.519 0 2.793-.94 3.805-2.032.9-.938 3.18-2.295 3.679-3.37 1.654-3.66 2.68-5.809 5.715-8.382l.004-.003c.026.005 4.967 1.363 8.894 1.363 7.243 0 14.067-16.265 19.158-21.674 2.031-2.156 4.852-6.558 5.611-10.078.883-3.922-.605-6.438 1.381-10.185.738-1.403 2.221-4.456 2.221-7.437 0-3.647-5.505-10.76-8.045-8.737-7.526 6.041-11.429-3.228-11.429-4.04 0-3.79 6.855-7.973 9.513-10.81 3.946-4.19 9.141-11.206 14.613-12.837 4.829-1.347 19.948-2.7 24.134-2.7 5.199 0 7.621 2.7 10.785 2.7h6.989c2.041-8.91 5.855-14.185 14.618-14.185 2.287 0 3.308-.68 7.628 0-2.173 1.757-3.07 13.46 10.789-4.725 1.4-.282 8.041 2.64-1.913 9.457-3.466 2.377-6.598 1.207-8.876 4.72-2.673 4.06-5.092 9.192-8.894 11.492-3.185 1.887-7.631 4.998-7.631 10.806 0 4.997 1.528 21.342 5.083 24.32 2.548-4.066 4.32-11.485 9.531-12.842-.637-3.778 5.084-4.584 5.084-7.42 0-4.462 4.434-5.686 4.434-8.108 0-1.629-1.225-3.272 0-6.078 10.276-23.36 19.688-10.808 23.511-10.808 11.303 0 19.309-15.34 29.202-15.539 18.861-.395 3.815-7.97 3.815-10.126 0-5.822 7.37-4.88 8.887-8.108.644-1.354-.617-4.738 1.911-4.738 7.991 0 14.596 11.49 20.315 11.49 2.551 0 3.05-4.995 4.444-6.752 2.176-2.704 4.217-2.446 7.627-3.654-4.562-6.49-19.429-10.136-26.676-14.586M1252.122 105.784c1.39 0 11.418-.667 11.418-2.433 0-2.02-4.813-3.37-6.72-3.37-2.163 0-5.97 2.43-5.97 4.455 0 .681.51 1.348 1.272 1.348" fill="#EDEDED"/><path d="M1216.17 114.162c.637 0 1.275-.675 1.275-1.344 0-.817-.766-1.084-.891-1.623h-4.198c.759 1.623 2.03 2.967 3.814 2.967M1095.253 71.337c.918 0 1.1-.993 1.232-1.786l.04.026-.034-.042c.009-.07.023-.153.034-.223h-.248l-1.024-1.083c-.513.674-1.017 1.213-1.017 2.034 0 .803.39 1.074 1.017 1.074M1011.678 78.094c-1.265 0-2.79.674-2.79 2.02 0 1.213 1.4 1.63 2.79 1.63 1.029 0 1.842-.358 2.652-.818.154-.223.27-.475.27-.811 0-1.617-1.15-2.021-2.922-2.021M1014.6 80.791c-.087.053-.182.085-.27.135-.22.321-.527.571-.748.82l1.019-.955zM964.05 49.99c0 1.355.37 2.025 1.902 2.025l6.728-2.025s3.943-.682 4.44-.682c2.298.415 8.899-.13 8.899-3.371 0-1.891-5.212-5.398-6.98-5.398-.884 0-1.4 1.076-2.3 1.349 1.039-1.081.38-1.081.38-2.978h-1.651c-5.077 0-6.216 4.998-9.134 8.107-.766.812-2.284.812-2.284 2.973M933.314 33.78c0 1.213 1.776 3.38 2.536 3.38 1.518 0 5.71-.27 5.962-2.703-.881-.264-4.444-2.027-5.077-2.027-.755 0-3.421 0-3.421 1.35" fill="#EDEDED"/><path d="M950.703 33.37c-4.06 1.353-5.33 2.839-9.52 4.32 1.901 1.082 5.21 4.869 6.736 4.869 4.57 0 8.634 2.43 14.225 2.43 1.148 0 2.533-.817 2.533-2.02 0-.946-1.008-1.354-1.903-1.635.76-.265 2.547-.398 2.547-1.75 0-1.352-.253-1.622 1.012-2.695-1.656-1.76-1.656-2.696-4.189-2.696h-2.547c-1.527 0-2.287-1.353-3.819-1.353-1.005 0-1.387-.41-2.655 0 1.015-.546 2.418-1.634 2.418-2.44 0-.677.117-1.08 0-2.704.5.138.237.406 1.528-.131-2.045-1.62-4.072-5.27-7.634-5.27-6.096 0-7.99 6.353-13.334 7.969 3.297 1.757 5.72 2.846 9.272 2.846.766 0 4.062.26 5.33.26M786.219 30.4c-.312.26-.604.42-.89.541v.544l.89-1.085z" fill="#EDEDED"/><path d="M772.89 27.696c1.147 0 1.782.814 2.916 1.22-.634.535-1.278.806-1.904 1.221.518.127 1.141.263 2.279.263-1.009.262-1.653.54-2.658 1.085.38 1.211 1.65 1.625 3.553 1.625h-.119c.37.531.754 1.21 1.389 1.347 1.15.132 1.403-2.302 2.543-2.972 1.731-1.04 2.826.164 4.44-.544v-.804c.388.127.89.127 1.287 0 1.514-1.222 3.16 0 3.418-2.44-.755-.265-2.288-1.35-3.816-1.35-1.9 0-2.786 1.755-4.684 1.755-2.43 0-4.207-1.755-7.377-1.755-2.663 0-8.638.403-9.779 2.568 1.02.14 1.772.536 2.795.536 1.913 0 4.322-1.755 5.717-1.755M833.227 27.026c.884 0 5.836-1.08 6.727-1.763l-1.78-4.314c-1.896 0-7.116 2.16-7.116 4.049 0 1.346.634 2.028 2.169 2.028M826.231 30.4l-.628-1.617c1.134 0 2.409.537 3.175-.678 0-.54.117-.801 0-2.025-1.148.264-3.302.141-4.061 0 .253 0 1.01-.404 1.266-1.082h-4.194c0 .258-.129.678 0 1.757-1.526.549-2.533 1.617-2.533 3.645 0 .673 6.22.408 6.975 0M812.895 30.137c-1.268 0-6.343.807-6.343 2.703 0 .53.633.94 1.263.94 1.141 0 1.652 0 1.905-1.35.768 0 1.777 1.35 2.54 1.35 1.778 0 1.652-2.027 4.192-2.027-.63-.949-1.9-1.616-3.557-1.616M812.26 27.432c1.4 0 2.793.264 3.81-.541-2.786-1.215-3.679-1.49-7.244-2.027 1.276-1.35 3.82-2.168 5.847-3.523 0-.673.633-1.347 1.15-1.744 0-.41-.13-1.63-.384-1.63-1.138 0-2.027 1.086-2.155 2.297-3.686 0-3.817 2.703-7.618 2.703v1.77c1.263-.82.757-.28 2.15.26h-5.33c-.643.53-.898.812-1.649 1.494.253.132 5.45 2.56 6.348 2.56 1.523 0 3.554-1.62 5.075-1.62M646.51 42.292c.383 0 .634.396 1.011.536-.506 2.162 1.404 3.248 3.56 4.46-.388 0-.63.141-1.01.283.622 1.345 2.02 2.144 4.055 2.144 2.667 0 2.667-2.969 3.81-3.639h1.026c.506.398 1.636 1.212 1.9 1.212h3.297c-1.389 1.213-4.82 2.84-6.47 3.374-.643.137-3.563.137-3.563 1.352 0 3.247 3.3 1.756 4.836 1.756.88 0 4.947.142 5.701.678-1.523.398-2.912 0-4.183 1.088 0 0-2.92-.405-4.7-.135 0 4.59 6.861 6.343 9.902 8.505 1.786-1.884 1.521-5.674 3.681-7.434.64-.532 1.654-.269 1.925-1.07 1.264-3.514 2.658-9.465 6.967-9.465 0 0 1.014 1.756 3.051 2.033-.635 0-1.135.127-1.776.262.508 1.076 1.658 3.516 2.535 3.782-.24 2.031-1.64 1.355-1.894 3.785 1.654.141 4.314 0 5.833.264-.376.687-.376 1.354-.127 2.442 3.182-1.088 4.571-3.374 8.01-4.593-1.143-1.756-4.828-.683-4.828-4.867h-4.065c.384-.544.255-1.352 0-2.029-.89.138-1.269.272-2.28 0 .372 0 .881 0 1.265-.139-1.265-1.609-7.997-5.668-10.164-5.668-.384 0-.888-.14-1.263-.14.248-1.079.503-3.234-1.535-3.234-1.014 0-1.27 1.21-2.27 1.75 0-.94.365-1.75.365-2.696 0-1.346-3.43-2.696-5.075-2.696-1.649 0-2.535 0-2.535 2.016 0 2.563.746 3.781 1.518 5.95-3.179-1.229-2.289-5.95-5.728-5.95-1.132 0-2.147 1.081-2.147 2.293 0 .82.383 1.488.882 1.761-.882-.94-2.145-.94-3.424-2.02.374-.686.892-1.083 1.523-1.896-2.917-.534-4.317-.534-6.352-.534-1.265 0-3.932 2.56-4.438 3.231.887.946 2.278 3.248 3.173 3.248M671.66 34.993c-.26 3.11 2.286 1.485 4.444 1.485.25 0 5.46.411 5.968.411-.636.27-2.037.27-3.173.668-.255 0-1.66 0-2.545.133.136 1.082.504 1.771 1.65 2.17h7.236c.894 1.616 2.167 2.432 4.447 2.432 3.678 0 10.04-4.735 13.088-6.893-.757-1.62-3.182-3.647-5.724-3.647h-4.174c-1.918 0-2.677 1.356-3.817 1.356-.264-.953 0-1.62 0-3.38h-1.522c-.635.541-1.66 3.112-3.178 3.112-.635 0-4.325-1.905-5.09-2.709h-3.546l.63 1.356h-2.146v.668c-.777.41-1.79.131-2.549-.403h-1.912c.124 1.356.897 2.441 1.912 3.241M647.648 49.715c-.86-2.884-2.556-3.488-4.169-5.619-1.895 1.267 1.743 4.98 4.17 5.619M643.716 43.907c-.1.048-.14.12-.22.179l.22.23v-.409z" fill="#EDEDED"/><path d="M643.332 43.907c.048.072.1.123.148.19.014-.008.014-.011.014-.011l-.162-.178zM569.537 219.535c0 1.632 1.644 3.107 3.172 3.107.76 0 1.786-.128 2.412-.527 1.023-.684 2.539-2.978 4.583-2.978 1.257 0 2.53.13 3.3-.674 1.009-1.084.122-2.712.122-3.79v-4.587c0-1.078 2.29-.94 2.29-2.03 0-2.303-1.403-5.537-4.322-5.537h-2.161c-1.273 0-3.812 1.621-3.812 2.565 0 .67.258.94.763 1.748-.763.817-2.921 1.492-3.68 1.492-.376 0-1.402-.269-1.402 1.49 0 1.351 1.15 2.162 2.417 2.832-.51 3.246-3.682 3.513-3.682 6.89" fill="#EDEDED"/><path d="M585.028 192.386v1.08c0 .13-.886 1.083-.886 1.748 0 .553 1.142.954 1.9 1.091v1.21c-.375.272-.508.537-.508.95v2.166h1.02c-.247-.542-.635-.947 0-2.038a3.788 3.788 0 0 0 2.161.677c-.384 1.08 0 1.361 0 2.572 0 1.073-1.265 1.763-1.265 2.836 0 1.075.881 1.075 2.03 1.075 1.018 0 1.653-.664 2.922-.664.375 0 .755.125 1.141.125-.256.54-.889.81-.889 1.886 0 1.361 1.767 1.64 3.053 1.49v2.03c-.635 1.356-3.438 2.561-5.72 2.561 0 1.492 1.021 2.17 1.021 3.935 0 2.014-3.558 2.154-3.558 4.182 0 .265.374.675.628.675.637 0 .511-.675 1.278-.675 1.39 0 1.902 1.62 3.55 1.62.893 0 1.773-.539 2.292-1.355 0 .267.255.682.255.951 0 1.881-2.547 1.225-4.32 1.75-.387.131-4.19 4.457-4.453 5v.812h.888c.51-.539.887-1.074 1.788-1.074h1.777c0-1.093.757-2.3 2.024-2.3.897 0 1.404.811 2.296.811 1.902 0 5.33-1.214 6.601-1.214h5.076c1.525 0 2.422-.817 3.556-2.035v-.936c-.757 0-1.263-.147-2.545-.545 1.02-1.756 4.078-2.97 4.078-5.404 0-1.343-1.153-2.562-2.667-2.562-1.026 0-.772-.144-1.66.533l.634-.533c-.505.262-.634.67-1.519.941v-.94c.385-.145.626-.548.626-.957 0-1.065-1.387-1.758-1.387-2.838 0-3.23-3.305-4.19-5.332-6.345-1.537-1.623-1.144-4.86-3.559-5.677-1.02-.269-1.648.27-2.934-.134.14-.527.522-.943 1.032-1.08 0-2.85 3.924-4.454 3.422-8.246h-7.495c-.247-.398-.372-.664-.372-1.078.372-1.882 3.167-1.616 3.167-3.497 0-.275-.763-1.223-1.269-1.223h-3.678c-.773 0-2.04 1.078-2.04 1.747 0 .683-.508 1.215-.508 2.298-.876 0-1.77.537-1.77 1.626 0 .264.374.68.624.81 0 .27-.25.8-.506.8-.248 0-.886-.394-.886-1.2h-2.03c0 1.751 1.017 2.153 2.916 2.562M556.458 145.771l.25-.275c0-3.77-4.707-2.829-4.707-6.74 0-.415.388-.946.767-1.225-1.135 0-1.906.686-3.043.686-1.274 0-2.29-.14-2.29-1.764-.505.407-.505.27-1.398 0-.255.54-.503.95-.503 2.024-1.145-1.216-2.672.403-4.32.403-1.15 0-2.159-.403-4.069-.403 0 .403-.124.953 0 1.346-.503-.258-.763-.673-1.776-.943l-3.049.822c-.759 0-1.145-.683-1.652-1.225-.376.542-.25.814 0 1.758-.632.141-1.403.812-2.284.812-.89 0-2.04-1.756-1.905-2.706-.136-.81-.637-1.212-.759-2.024h-1.019c-1.01 0-1.27 1.493-2.283 1.493v1.07c-.772-.403-1.408-.663-2.54-.265.247 1.482 4.946 2.97 6.465 2.97 0 .41.136.808.514 1.082-1.395.546-4.697 1.215-6.608 1.215 1.277 1.357 3.441 0 5.471.543-.258 1.484-.643 2.303-.643 4.052-.376 0-.754.4-1.139.67 2.8 0 3.811 1.894 5.59 2.442 3.424 1.216 6.732 2.432 11.423 2.432 4.327 0 6.735-2.294 9.787-3.383 1.651-.543 4.708-2.968 5.72-4.867M337.35 363.413c-.892-.397-1.52-2.292-2.919-2.702l-1.907-.13c-.125-.26 0-.67 0-.947-2.918 0-6.092-1.485-7.881-3.374-.245-.271-1.265-1.621-2.158-1.621-4.179 0-6.858-3.374-12.442-3.374-5.718 0-8.389 2.293-10.418 5.942h1.148c1.262-1.34 4.699-3.247 7.111-3.247.632 0 1.268-.136 1.775.418-.38.398-.507.94.256 1.489h3.681c1.779 0 2.669 2.01 4.451 2.01 1.012 0 1.653-.402 2.669.143.504.267.373 1.212 1.395 1.212.374 2.036 2.414 1.889 4.321 2.845-.121.664-.646 1.209-1.271 1.209v.818c2.41 0 4.445.937 7.363.937 1.525 0 3.934 0 4.826-1.628M337.607 370.034c0 .818.764 2.04 1.521 2.166 0-.397.128-.665.128-1.083.638.418.638 0 1.524 0 1.528 0 4.572-.405 5.717.418.634.403.378 1.741 1.52 1.741 1.393 0 1.278-2.424 2.925-2.424.636 0 .51.683 1.268.683.891 0 1.397-.552 2.29-1.089h4.696c-.89-1.347-2.153-1.89-3.42-2.977l.625.549c-2.279-1.213-3.048-3.513-7.106-3.513-1.397 0-2.164.542-3.807.542-1.143 0-1.908-.943-3.06-.943-.378 0-1.018.527-1.018.943 0 .799.898 1.487 1.656 1.487 0 1.064.128 2.022.881 2.834-1.519.814-2.787.121-5.708.121-.126.148-.377.545-.632.545M160.67 235.758l.003.004-.001-.004z" fill="#EDEDED"/><g transform="translate(0 100.882)"><mask id="b" fill="#fff"><use xlink:href="#a"/></mask><path d="M128.788 95.423c-1.396-1.485-2.03-3.516-2.542-5.138-.335-1.089-1.164-1.428-1.52-1.868.364.44 1.19.78 1.524 1.868.51 1.622 1.142 3.65 2.543 5.138.161.173.358.291.574.388a1.797 1.797 0 0 1-.579-.388m349.166 265.591c-1.775-.53-2.918.274-4.697-.255-2.029-.683-5.973-4.469-7.115-6.483-1.392-.68-3.56-1.626-5.97-2.183l-4.82.701c-2.548 0-3.047-2.179-5.713-2.179-1.145 0-1.658.951-2.8 1.478h-.895c0-1.2.132-2.145-.249-3.36-.25-1.089-1.397-.814-2.409-1.49-1.31-.857-4.464-2.646-6.849-3.348.085-.234.154-.457.187-.656.097-.59-.395-2.782-1.494-2.963-1.377-.227-4.383 2.585-4.325-1.305-1.724-.284-3.152-1.472-4.39-2.668.075-.092.154-.183.226-.279 0-1.352-1.642-1.352-2.283-2.699-.637-1.487-2.293-5.809-2.293-7.417-2.16-.56-4.817-5.012-6.856-5.012h-.756v-.262c-1.275 0-3.313-1.093-4.195-1.484h-3.305c-3.432-.693-8.764-.268-9.649-4.06-.64 0-1.65-.283-1.909-.827-1.52-3.365-2.664-2.95-5.076-5.523h-3.56c-.51-1.755-.128-3.79-1.779-4.31-1.9-.69-4.57-1.085-5.456-2.985v-1.087c.381.272 1.39.146 1.9-.266 0 0-2.294-.42-3.557-.42-.385.28-3.049.28-3.173.686-.768 1.63-2.03 1.63-3.932 1.895-1.014 0-2.545-.266-2.545-1.488h-6.862c-.76-.135-1.526-1.094-1.526-2.42-1.906-.422-4.763-1.177-5.266-3.349l-2.225-.035c0 1.618 1.902.948 2.41 2.561h-3.042c-1.15.823-3.174.557-3.174 2.57 0 1.624 1.525 2.578 1.525 4.194 0 .543-.699 2.193-1.21 2.193-1.396 0-2.096-2.605-2.096-4.093 0-1.214.766-3.508 1.147-5.522.498 0 1.266-.553 1.266-1.626 0-.129-.512-1.619-1.148-1.619-1.645 0-2.02 2.01-3.67 2.555-3.186 1.082-5.218 1.63-8.264 2.704-1.655.543-2.799.937-3.427 3.11-.259 1.083-.383 2.841-1.153 3.383-.753.535-2.029.941-2.029 2.29-.256 0-.762.41-.762.67v.804c-.884.283-.506.283-1.522 0-.182.323-.538.613-.936.924.441-.504.791-.929.843-1.044-2.03-1.618-3.6-4.324-7.145-4.324-3.05 0-4.7 2.694-8.004 2.694-2.166 0-2.166-2.556-3.557-3.242-2.024-1.072-4.698-2.287-4.698-5.265v-8.243c.763-1.357.884-4.72.884-5.943v-2.029c-2.274-.522-3.04-2.842-6.092-2.842-4.448 0-7.883.812-12.06.812-.764 0-1.532-.534-1.532-1.47v-.685c.768-.806 2.288-1.353 2.288-2.694V269.3h1.012v.946c.772-1.362 1.53-2.303 1.53-4.46 0-2.565 2.161-5.009 2.161-6.89v-1.226c-.76 0-2.416-.127-2.919-.266-.51-.267-1.4-.409-2.54-.409-3.436 0-7.625 1.354-7.625 5.263 0 2.035-2.164 3.785-2.668 5.416-.127.547-.766 2.156-1.778 2.156-.51 0-1.022-.823-2.417-.823-2.537 0-4.57 1.914-6.983 1.914-1.02 0-1.02-1.219-2.154-1.62-3.312-1.08-3.312-3.379-5.589-5.814-.895-.957-2.543-2.832-3.057-3.939-.503-1.199.134-2.005-.376-3.22-.258-.54-1.274-1.632-1.015-2.71v-7.558c.38-2.029 1.266-2.97 1.266-5.409 0-.804-.25-1.349-.509-2.16l-.076-.32.334.045c0-.4-.635-.944-.635-1.337 0-4.07 1.647-7.72 4.445-8.786 1.263-.556 2.406.402 3.43-.678 1.528-1.62 3.302-5.005 6.986-5.005 1.396 0 2.156 1.35 3.554 1.35.762 0 1.14-1.075 1.906-1.075 2.541 0 5.591 4.591 9.148 2.704-1.529-1.078-.385-2.29-.257-4.325-.765.402-.512.402-1.775 0 2.151-.799 4.83-.535 6.86-1.084 0 .417.502 1.084.886 1.084 1.02 0 1.397-1.084 3.174-1.084 3.051 0 4.443 3.118 6.733 3.118 1.136 0 1.655-1.769 2.794-1.769 5.584 0 4.057 8.252 6.1 12.578 1.007 2.156 2.282 2.826 3.81 4.992.752 1.21.632 3.373 2.538 3.373 2.153 0 2.79-2.564 2.79-5.393 0-2.446-1.136-3.806-1.525-5.416v-.67c0-4.334-3.555-5.68-3.555-10.136 0-9.82 7.611-12.388 13.562-15.95l-.345-.264c.755-.817.635-1.224 2.16-1.752 1.008-.273 1.67-1.325 3.166-1.627.702-.145 1.112-.949 1.492-1.487l-1.492-.938v-1.08c1.14 0 1.72.123 1.973-1.365-.64-.125-1.242-.235-1.746-1.17.634 0 1.677-.573 1.677-1.658v-1.353h-.879c-.77-.8 0-.674 0-2.014 0-1.362-.642-3.803-.642-4.74 0 0-.128-1.07.117-1.758.268 1.355 1.404 3.524 1.404 4.47v1.472c0 .293.262.82.51.82.381 0 2.928-4.73 2.928-5.536 0-1.08-.892-1.492-1.149-2.582l.635-.656c.253.253.514 1.071.891 1.071.888 0 3.3-4.732 3.557-5.807 0 0-1.139-.945-1.139-1.634 0-.398.37-.796.76-.94.38 0 .762.144 1.144.144 1.774 0 3.05 0 4.827-.672-.894-.686-2.039 0-3.184 0h-1.27c2.542-1.763 6.862-.956 9.405-2.98.504.532 2.662 0 4.191-.41v-.93s-1.134.93-1.396.93c-.763 0-1.273-1.753-1.273-2.426-.378-.145-.512-.818-.512-1.224 0-5.115 4.321-6.604 6.355-8.779 1.267-.672 1.395 0 2.914 0 1.79 0 3.186-.814 4.074-2.3-.238-.319-.413-.674-.582-1.036l-.052-.31v-.41c.255.137.89 0 1.267 0 .771 0 3.942.542 5.077-.26 1.144-.813 1.144-2.566 3.055-2.695 0 1.882-.127 2.024 1.906 2.024-2.929.261-7.49 2.425-7.49 5.388 0 1.22 1.778 3.393 2.53 3.393 1.015 0 3.375-3.632 5.91-4.442.641-.132 9.34-3.669 9.34-4.758 0-1.476-3.31-1.605-4.068-1.605-3.689 0-9.527-3.79-9.527-7.176 0-.802 1.013-1.885 1.272-3.245-.638 0-2.038-.398-3.179-.398.763-1.07 5.335-1.76 5.335-4.46 0-2.566-3.94-2.018-6.608-2.018-5.583 0-8.128 4.18-11.932 4.718 1.651-3.64 4.316-2.438 7.112-5.409 1.772-1.876.507-3.092 3.172-4.045 4.828-1.619 7.623-.668 12.446-.668 6.352 0 9.823 2.207 13.593-2.978 1.83-2.522 12.065-3.115 12.065-7.429 0-3.11-1.01-4.467-2.158-6.484-1.022 0 .445-1.327-1.022-2.029v-1.626c-2.918 1.755-9.014 4.053-12.057 4.053-.393 0-1.144-.266-1.276-.533 2.543-1.49 9.601-2.516 10.36-5.085.125-.673-.957-.87-1.084-1.535-3.053.397-9.528-1.089-9.528-5.672v-.414c-2.789 0-4.446-1.889-6.095-3.24.631-.39 1.904-.812 1.904-2.435 0-1.346-1.14-2.428-.892-3.776-1.143-.405-5.266-3.196-4.189-5.674 1.33-3.066-4.068-3.783-4.444-7.428-.383 0-1.649-1.212-2.16-1.76-.89.68-2.92 1.891-2.92 3.782 0 2.026-4.068 7.022-7.24 7.022-2.282 0-2.668-2.964-4.194-2.964-2.164 0-3.049-6.626-3.42-9.454-.519-3.79-7.379-1.088-7.379-6.09-3.556-.53-4.32-5.126-7.875-5.126-1.65 0-1.65 1.346-3.55 1.346-3.693 0-5.972-2.296-9.536-2.296-1.9 0-3.805.95-3.805 3.374 0 1.356 4.482 3.326.38 6.078-1.607 1.09 2.313 4.071 2.548 6.088.447 3.997-3.156 4.998-4.805 5.685 2.92 5.278 7.34 7.012 7.34 15.93 0 2.43-7.618 8.503-10.162 9.05 4.414 2.38 2.666 9.734 4.446 12.027-.509.812-2.16 1.758-2.288 3.232-1.524 0-2.619 2.65-3.816 1.623-3.139-2.678-7.613-6.886-7.613-10.809 0-4.31.753-7.702-2.795-10.12h-8.257c-4.702-3.65-10.034-5.822-15.627-8.117-1.008-.4-3.935-2.697-5.712-2.697-1.907 0-2.788 2.024-4.704 2.024 0-3.246-2.028-10.802-4.82-10.802-1.269 0-1.909 1.078-3.174 1.351.508-1.626 0-2.172 0-6.088 0-5.409 1.523-8.643 4.442-11.754 1.018-1.075 3.175-6.336 4.193-6.749 2.156-.803 5.967.545 5.967-2.706 0-2.03-4.862-2.179-6.635-3.266 1.138.411-2.704-2.359 7.62 1.015 2.67.875 1.05-2.884 2.572-2.884h2.8c3.044 0 4.696-3.37 6.723-4.992V44.75c-4.314-1.076-8.629-.392-10.539-4.452h2.29c1.648 1.09 3.303 3.103 5.715 3.103 2.028 0 5.721-2.829 5.721-4.459 0-.525-1.909-2.963-.9-2.963 2.797 0 3.814 2.705 5.591 2.705 1.141 0 1.91-1.084 4.19-1.084-.635-.814-.03-3.205 1.527-.675.834 1.358 7.367-4.593 7.367-6.347 0-1.215-2.918-2.566-2.918-3.387 0-.933-1.712-3.09 2.285-5.137.505-1.214 0-1.069 0-3.363-4.063 0-3.054-3.39-8.262-3.39-1.135-.136-2.03-.95-3.17-.95-1.523 0-3.175 1.092-3.175 2.715 0 1.757 1.906 2.426 1.906 3.642 0 1.346-2.929 1.346-3.564 2.698-1.006 2.308-.667 4.107-2.505 6.606-2.858 3.874-6.628-2.414-6.628-3.902 0-1.752 2.156-1.349 2.156-3.365 0-.95-3.688-4.742-4.703-4.742-3.685 0-1.148 5.818-5.077 5.818 0-2.299-.252-3.92-2.923-5.269.38-.683.632-1.08 1.27-1.617-2.032-1.363-4.828 0-6.359-2.034.892-.55 3.183-1.483 3.183-3.242 0-2.564-3.757-2.464-3.817-4.464-.122-4.206-2.916-6.89-7.868-7.024-2.42-.062-1.4 1.628-1.278 2.974-1.522.41-3.549 0-3.549 2.028 0 1.355 1.014 2.022 1.014 3.373 0 1.357-1.648 1.225-1.648 3.113 0 4.465 8.636 1.76 8.636 6.344 0 .82-1.024 4.051-1.024 4.051.897-.532 1.654-.8 2.678-1.346 1.65 5.55-6.737 2.84-6.737 9.453-4.164 1.2-.892-3.24-1.905-4.724-.375-.676-3.809-1.616-5.713-1.616-2.284 0-3.174 1.485-3.174 4.331-2.157-.286-3.56 0-10.799 0-6.864 0-14.862-2.572-16.513-8.106-2.282.662-9.91.794-9.91 3.775 0 .94.594 1.463 1.615 1.463 2.034 0 5.378-1.067 6.901-2.136.507 4.45-5.98.81-5.98 5.407 0 .932 1.405 4.041.772 4.041-2.54 0-3.047-3.374-5.206-4.444l-1.912-.96h-8.124c-2.545 0-4.189 1.092-6.986 1.217-5.032.254-5.032-1.71-5.032-2.12 0-1.209 3.887-.709 4.651-1.528-3.537-5.228-2.902-4.377-10.165-3.776-7.722.637-11.562-6.084-19.303-6.084-2.416 0-3.433 1.757-5.46 1.757-1.4 0-2.803-2.569-3.05-3.649-2.41.547-2.41 3.516-4.956 3.516-2.417 0-5.843-6.078-6.606-6.078-2.54 0-1.65 3.904-4.316 3.904-1.016 0-1.913-.795-2.293-1.873-3.927.94-5.327 1.22-8.88 2.687-1.404.278-4.73 2.867-5.842 1.77-3.329-3.313-2.747.9-3.945.934-8.265.321-2.54 3.518-3.684 3.518-3.174 0-8.873-.669-14.099-4.053-.21-.136-1.78-1.346-1.78-1.762-.884.552-.25.282-1.513 0l-.003.141c-3.17-1.079-4.32-2.704-8.005-2.704-2.286 0-3.685.942-5.975.942-3.936 0-11.809-.67-14.345-3.376H58.17c-1.777-.943-2.279-1.618-3.812-2.695h-6.345c-1.148-.414-1.534-.812-2.93-1.352-.633 1.081-1.899 2.018-3.172 1.75.383-.669.511-.94 1.14-1.75-1.64-.546-2.276-2.03-3.934-2.03-2.155 0-3.432 2.968-5.465 3.78-1.774.68-2.924-.257-4.697.268-6.722 2.306-12.443 7.442-16.254 12.841H5.711c-.13.407-1.898 3.785-1.898 3.785 0 .945 5.208 2.023 6.726 2.98 1.265.801 2.795 4.858 3.81 5.384 3.685 1.9 6.356 2.168 7.618 6.498-1.515.406-1.775 0-3.554 0-2.67 0-4.708 1.221-4.708-3.105h-2.279C8.384 39.086 3.17 40.84 0 42.863c.63 1.352 1.774 2.164 3.813 2.164-.139.408-.385.943-.385 1.348 0 1.22 1.525 1.763 1.65 3.784h6.726c1.901-.403 2.795.951 5.344.951 2.66 0 3.422-2.303 5.46-2.303.756 0 .756-.138 1.906 0v2.033c-.887-.542-.63-.68-1.907.133.127.398 2.16 2.291 2.16 3.243 0 1.751-8.639 5.41-9.784 5.41-2.667 0-9.523 3.374-9.523 7.417 0 2.17 4.068 2.841 5.08 5.813-.632 0-1.269.413-1.908.413.896 1.211 6.861 6.206 8.516 6.206.504 0 1.527-2.29 2.54-2.29 1.137 0 1.017 1.621 1.017 2.022v2.708c0 1.075.501 3.375 1.262 3.375.512 0 1.145-1.075 1.916-1.075h1.52c0-.558-.13-1.225.117-2.034 2.167 1.758 3.053 2.562 6.104 3.787.127-.955.503-1.36.89-2.442 1.267.413 1.9 1.082 3.434 1.082 1.894 0 2.787-.95 4.687-1.747h1.913c-3.053 2.018-3.053 6.076-5.966 8.098-3.057 2.166-8.009 4.464-10.16 7.43-1.526 2.03-3.943.671-6.102 2.03-1.393.814-2.536 3.512-4.068 4.452-2.153 1.358-4.576.27-6.093 2.844 5.334 1.614 7.875-4.056 12.448-4.865 3.681-.535 8.251-2.03 10.16-4.048 2.033-2.17 6.35-3.522 8.26-6.089 1.012-1.346 1.521-2.696 3.175-3.372 2.911-1.217 5.707-2.294 5.707-5.402v-2.024c0-4.458 8.385-11.897 11.435-11.897h1.53c0 .406-.129.951-.129 1.344-3.686 1.221-5.59 3.53-5.59 6.492 0 .677-.495.677.125 1.621-.253.134-1.015.276-1.015 1.082 0 .542.762.96 1.273.96 2.926 0 11.046-4.882 12.7-7.57-.638-.542-.892-.95-1.266-1.9 1.14-.685 3.677-1.353 5.21-2.029 2.152 4.737 7.745 5.271 11.934 6.758h6.992c3.805 2.298 8.128 2.158 11.42 4.74 1.521 1.207 3.308 5.12 5.974 5.12 1.014 0 1.52-1.346 1.901-2.42 1.02 1.074 1.904 2.008 3.817 2.008.501-.934 1.651.282 2.281.951-.38.678-1.27 1.22-1.27 2.842 0 .81 1.398 2.03 1.903 2.03 1.655 0 1.023-1.627 3.435-1.762v1.761c0 1.08-1.905 1.205-1.905 2.29 0 .815.51 2.026 2.282 2.026 2.285 0 3.811 0 3.811 2.026v2.03c0 1.487 3.176 4.053 5.337 4.053.64 0 .64-.139 1.274-.139 0-.943 1.774-1.215 1.774-2.696 0-2.589-1.796-3.385-2.977-4.428 1.188 1.043 2.98 1.84 2.98 4.428 0 1.488-1.775 1.75-1.775 2.696 0 .68.758 1.09.758 1.886 0 1.77-.513 5.41 1.27 5.958 1.007.265 2.028.265 2.788 1.07 1.146 1.222-.249 2.988 1.273 4.061 0 0 3.31 2.153 3.425 2.57.895 3.102 1.153 6.753 5.472 6.753.63 2.708 5.081.944 6.087 4.45.391 1.36 3.567 1.624 4.83 2.974.248.268.892.556 1.397.822h.001v.003c.513 1.346 1.656 1.76 1.656 3.096 0 1.215-1.15 2.833-1.78 3.658-.645-1.233-1.78-2.303-3.684-2.303-.507 0-1.909.13-1.909.946 0 2.96 3.171 4.185 3.171 7.148 0 4.191-3.337 11.857-2.156 15.141 1.228 3.403-.123 8.387 1.277 11.353-.763.528-1.905 1.394-1.277 2.564 2.184 4.005 4.962 10 7.63 10.403-.64 5.53 2.918 7.156 4.692 11.883.386 1.074 0 2.581 1.018 2.98 4.573 1.878 11.05 4.724 12.956 8.776h-.256v.937c.893 3.124 2.026 3.928 3.178 6.355.76 1.621.672 5.39 2.177 6.414 2.225 1.52 4.313 4.411 6.193 7.258 1.112 1.687-1.89 1.196-2.53 1.196 1.277 2.022 4.066 1.613 5.843 3.511 1.273 1.35 2.294 2.832 3.682 4.322v3.514c.382.668.52.668 1.28 1.216 1.39.937 2.624 4.145 4.9 4.145.133.557 1.826 2.883 2.078 2.883.38 0 .886-1.355.886-2.035 0-1.075-1.515-3.368-2.542-2.288-2.276-1.628-3.046-5.134-4.059-8.382-.888-2.837-3.43-4.325-4.319-7.432-.633-2.285-.89-3.643-2.663-5.534-1.27-1.358-2.933-1.367-3.826-3.388-1.019-2.297-2.278-4.043-2.278-6.875 0-.412-.124-1.227.256-1.756 1.655 1.756 3.692 1.61 5.848 2.7 1.007.531.757 3.512 1.904 4.728 1.147 1.21.76 3.505 1.9 4.73 1.402 1.478 2.666 2.968 4.325 4.72.377-.398.25-.269 1.391 0 0 3.243 3.945 3.52 5.08 5.946.64 1.49-.25 2.844.76 3.915 1.274 1.346 3.31 1.895 4.58 3.244 2.796 2.968 7.11 6.89 8.634 11.76.251.938 1.275 1.342 1.275 3.112 0 1.47-1.275 2.292-1.275 3.781 0 1.211.768 2.701 1.905 2.701.382 1.752 4.317 2.685 5.848 4.324.378.402.633.53 1.394.945 1.652.801 2.542.54 4.192 1.346 1.77.951 2.153 2.568 3.932 3.102 1.398.408 2.29-.4 3.693.272 1.267.667 5.585 3.91 7.111 3.91 1.015 0 1.905-.262 2.912.278.51.272 1.536 1.223 2.541 1.223 2.162 0 2.542-2.71 4.83-2.71 1.02 0 1.78.414 2.797 1.081h.765c3.43 1.756 3.931 4.857 7.868 6.902 2.548 1.344 4.324.67 6.735 1.88 1.65.803 2.914 2.298 5.333 2.298.89 0 1.531-.68 2.421-.68h.758c.76 3.236 2.916 4.454 4.952 6.628.631.66 1.268.953 1.648 2.301.637 2.02-.636 3.915 1.275 5.264h1.273c-.258-.27-.258-.81 0-1.215.12 0 4.433 2.835 4.822 3.636.507 1.086.507 2.428 2.288 2.848 0 .27.386.803.63.803.891 0 2.923-.803 3.815.146 1.013 1.074 2.29 3.645 4.314 3.645 1.015 0 1.651-.675 1.912-2.038-.26-.13-1.024-.672-1.024-1.213 0-.8 3.562-3.513 4.455-3.513 1.396 0 1.777 1.75 3.168 2.44-.254.533-.764.802-.764 1.347 0 .406 1.178.785 1.434 1.054.05.028.165-.042.305-.143a2.06 2.06 0 0 0-.205.848c0 2.422 2.29 2.022 2.29 4.876 0 1.343-.644 1.868-.644 3.491 0 1.09.764 1.91.764 2.977v.681l-.51 1.076c0 .406.64 1.09 1.27 1.356-.76 3.647-4.06 2.703-5.462 5.666-1.01 2.177-1.906 5.814-5.338 5.814.54 5.956-2.667 5.411-2.667 8.512 0 1.882.254 4.581 2.036 4.581.892 0 .764-.663 1.9.132-.5 2.183-2.79 2.712-3.936 4.74-.509.542-1.395 2.438-1.395 4.067 0 2.43 1.778 5.13 3.172 6.617.513.537 1.527.261 1.914 1.068.38.96.635 2.838 1.524 3.794.382.386 1.27.14 1.646.944 1.144 2.572 1.902 4.323 2.791 7.417.892 2.97 3.433 5.402 4.452 8.66.51 1.886 2.404 2.97 2.404 5.125 0 1.615-.499 3.114.518 4.181 2.285 2.43 4.058 4.336 7.62 5.55 1.771.543 2.531 1.084 4.057 2.708 1.407 1.481 2.802 1.211 4.702 2.157 2.284 1.22 4.323 3.24 5.474 6.475.372 1.486 1.005 9.46 1.005 10.814 0 2.162-1.14 5.806-1.14 7.71v5.927c-.257 1.358-.889 3.784-.889 4.733V446c0 4.592-2.926 7.974-2.926 13.107 0 2.162-1.39 4.051-.636 6.485l.133 10.123c-.766 3.257-.766 5.54-1.652 8.65-.126.545-.768.416-1.145.945-.638.94-.888 2.853-1.403 3.782-1.133 1.888-2.917 5.006-2.917 8.114 0 .954.128 4.733.638 4.733 0 0 .756.664.756 1.482 0 .406-.377.808-1.266.808-.382 2.423-1.266 3.516-1.266 6.075 0 1.493.758 4.6 1.776 4.6.886 0 1.013-1.086 1.906-1.494.373-.122.77 0 1.138 0v2.035l-4.188 20.001c-1.903 0-1.014-2.444-3.304-2.444-.63 0-1.14.67-1.14 1.484h-.129v1.366c.254 1.476 1.782 3.652 1.782 4.718 0 2.161-2.928 3.12-2.928 5.54 0 2.293 1.903 7.03 1.903 9.996v1.888c0 2.84 3.43 2.308 3.43 5.558 0 .801-.506 1.613-.884 2.283.378.271.638.542 1.014.68-.13 1.212-2.408 1.085-2.408 2.287 0 .271.761.947 1.141 1.363 1.65 1.758 2.667 3.635 6.225 3.635.124.68.382 1.773 1.396 1.773h2.41c0 2.422 2.8 2.422 4.702 3.094 2.04.678 1.011 4.333 3.942 4.333h3.551c.384 0 .893-.556 1.267-.556h1.403c1.145 0 4.318-2.56 6.222-2.56.76 0 1.523.401 2.03-.396-3.43-1.759-6.852-2.987-9.655-5.965-1.649-1.735-1.519-7.958-3.808-9.318-.765-.129-1.906-1.747-1.906-3.109 0-2.56.64-4.446 2.163-6.068 1.145-1.218 3.177-.403 4.063-2.293.764-1.766.381-3.523 1.4-4.6 1.777-1.886 4.945-2.289 4.945-6.057 0-4.2-5.707-2.32-5.707-7.592 0-2.3 1.773-4.185 3.805-4.726.891-.13 3.174-.263 3.43-1.757.763-3.377.763-5.812 3.045-8.232-.627-.273-1.389-.542-1.389-2.037 1.267 0 1.78 1.218 3.298 1.218.261 0 1.27-.943 1.27-1.756 0-.663-.63-.81-1.136-1.345-.388.115-1.15.945-1.79.945-1.133 0-2.662-3.508-2.662-5.408 0-.677.388-1.618 1.276-1.618 2.533 0 3.042 1.887 5.716 1.887.883 0 2.914-.946 2.914-1.619v-1.349c.891-1.9-.38-5.957 1.27-7.694 1.146-1.236 5.34.248 7.371-.397 3.045-1.086 5.716-.427 7.872-2.715 1.271-1.363 2.164-2.217 3.314-4.118.632-1.07.621-1.954.621-3.599 0-1.47-2.027-1.47-2.408-2.966-.51-1.613-.51-3.102-1.527-4.188-.379-.405-2.283-1.066-2.283-2.282 0-.416.63-.685 1.011-.685 1.905 0 3.56 1.626 5.334 1.626.897 0 3.726 1.474 5.76 1.474 5.842 0 6.822-6.742 9.358-10.809 2.157-3.503 4.7-3.909 6.987-7.55 1.02-1.764.896-2.697 1.78-4.458v.137c1.267-2.852 2.533-5.142 5.082-6.49v-6.34c0-2.57-.253-4.47 1.4-6.23 1.011-1.068 2.655-1.068 3.681-2.845 2.28-3.764 5.463-1.879 8.508-5.12.382-.4.511-1.073 1.275-1.5 1.894-.934 3.81-.793 6.22-.793 2.154 0 4.825-1.896 5.578-3.527.26-.532.14-2.164.646-2.962 1.9-2.699 2.543-4.057 4.443-7.169.252-.527.638-3.239.638-4.589 0-1.078 1.143-2.436 1.652-3.116.121-.393.627-.935.627-1.609 0-1.753.87-4.017.87-6.444 0-3.239-1.872-7.613.022-9.634 1.266-1.347 2.668-1.619 3.943-3.645.76-1.218 1.31-1.553 2.073-2.763 3.422-5.535 8.588-8.185 8.588-18.172 0-2.838-.634-5.667-3.175-6.503" fill="#EDEDED" mask="url(#b)"/></g><path d="M235.358 115.515c2.285 0 2.79.531 5.087-1.078-2.418-2.03-13.088-5.01-13.088-9.32 0-3.52-3.427-6.632-3.427-11.488 0-1.22 2.788-2.433 2.788-4.462 0-2.022-2.153-2.972-4.443-2.972-2.028 0-3.807.95-3.807 2.305 0 .412 0 .941.128 1.34-2.039 1.085-1.275 0-3.562 0-1.018 0-2.286.675-2.286 1.768 0 1.212 1.91 7.557 2.924 9.32-.638.528-.638 1.073-1.656 1.073-2.28 0-1.394-3.37-2.154-4.99-.635-1.487-2.414-3.25-4.202-3.79h-2.782c.254.817.508 1.217.634 2.432-1.405.41-2.412.67-3.81.954-.898-2.433-2.158-4.057-5.72-4.057-2.03 0-2.92 1.765-3.936 2.426-.508-.802-.379-4.719-2.163-4.719-4.574 0-16.133 4.853-16.133 11.477 0 .677 2.42 2.702 3.814 2.702 1.653 0 2.415-.405 4.447.136-1.4.942-5.079-.136-5.079 2.837 0 3.786 6.984 2.43 9.784 2.43h6.723c1.273 0 2.29.82 3.18 1.356-1.529.127-2.286.27-4.19.27-5.333 0-9.276.671-12.319 3.101.886 1.62 3.172 4.736 5.968 4.736 1.782 0 5.59-.419 6.983.664 1.523 1.22.126 3.384 2.291 3.384h11.42c2.676-2.027 5.85-.95 9.15-2.706 1.907-.939 1.021-2.425 3.298-2.425 3.69 0 5.467 4.05 10.424 4.05 3.173 0 6.098.13 7.24-2.43-.509-.406-1.142-.82-1.273-1.888-.51 0-1.909 0-1.909-1.082 0-.949.644-1.354 1.656-1.354" fill="#EDEDED"/><path d="M155.341 102.41c.378.675 1.268 2.707 1.905 2.707.643 0 1.011 1.343 1.9 1.343 1.014 0 9.78-3.375 9.78-4.454 0-3.117 5.591-8.784 9.533-10.135 1.262-.401 7.993-1.486 7.993-2.959 0-3.12-6.224-5.823-8.888-5.823-1.645 0-3.17 1.624-4.322.412-2.795-.28-4.06-1.892-6.846-2.71-2.29-.67-3.556.955-5.095.955-3.044 0-4.439-1.36-7.615 0 .128 1.476 1.9 3.647 1.9 4.716 0 4.874-6.346 8.651-6.346 13.243 0 1.626 5.08 1.222 6.101 2.706M189.882 69.853c-.425-.047-1.16-.172-1.959-.315.632.076 1.281.163 1.96.315m-3.487-2.954c-.112-.01-.192-.027-.322-.027-1.018 0-2.036.688-2.537 1.486.418.29.865.487 1.326.636a7.242 7.242 0 0 0-.694-.09s-1.144-.129-2.159 0v2.021c.45.188.921.38 1.407.572a6.908 6.908 0 0 0-1.407-.16c-1.272 0-1.9 1.08-3.172 1.351.501.953 0 .67 0 2.021 0 1.09.88 2.037 1.9 2.037.897 0 2.8.93 4.445.93 1.534 0 3.184-.667 5.336-.93 0-.814.634-1.629 1.403-1.768.253 1.354 1.4 2.031 2.157 3.116-1.65 0-3.56-.418-3.56 1.621 0 .8 2.036 2.03 3.56 2.03 3.175 0 5.713-.954 8.26-2.03.375-.13 8.501-2.039 8.501-2.303 0-.403 7.495.548 8.263.264 1.14-.399 4.187-4.453 4.187-6.339 0-1.622-1.396-3.38-2.92-3.38-1.647 0-2.29 1.621-3.425 1.621-2.42 0-4.833-2.973-4.833-4.995 0-.272-.124-.677 0-1.754-.885 0-1.653-.414-2.412-.95-1.27 1.081-4.569 2.16-4.569 4.33 0 1.21 2.281 1.875 3.172 2.021v1.76c-.376 0-1.14.273-1.267.54.503.261 1.143.395 2.536.395-.51 1.225-1.143 1.763-2.797 1.763-5.583 0-8.249-5.128-12.065-5.128h-2.917c-.123-1.624-1.662-2.035-2.165-2.035-1.134 0-1.9-.406-4.188 0 0 .668.398 1.096.956 1.374M172.489 72.016c0 .937 1.14 1.62 2.153 1.62 1.648 0 3.562-2.845 3.813-4.732-1.263-.13-5.966.949-5.966 3.112M190.268 63.906h2.796V62.15h-4.444a1.71 1.71 0 0 0 1.648 1.756M163.21 68.903c1.272 0 2.03.811 3.567 0 .244.544 1.132 2.025 2.15 2.025 1.395 0 2.404-1.48 2.667-2.97 2.156.271 4.063-1.886 4.325-4.189 1.137.671 1.011 3.791 3.17 3.791l5.46-4.332c0-1.079-.884-1.35-1.012-2.698.883-.273 1.646-1.212 1.646-2.167 0-2.424-7.619-.265-7.619-.265-1.138-.137-1.274-.27-2.289-.27-3.552 0-4.19 3.507-6.599 5.001-2.158 1.34-4.06 1.611-6.097 2.696-.508.28-2.797 2.164-2.797 2.432 0 .401 1.021 1.084 1.268 2.026 1.021-.13 1.394-1.08 2.16-1.08M199.41 51.068h5.468c1.521 0 2.407-.81 3.42-1.345-.504-1.752-2.663-3.38-5.332-3.38-1.647 0-9.266 2.965-9.266 4.725 1.01-.136 1.52-1.078 2.534-1.078 1.277 0 1.652 1.078 3.175 1.078M204.491 51.748c-2.659 0-10.412.267-10.412 3.383 0 1.209 2.157 3.633 4.064 3.633 2.791 0 6.985-1.211 6.736-4.048h-3.56c1.904 0 4.064-.408 5.456-1.621-.375-.535-.883-1.347-2.284-1.347M190.519 56.063c.89 0 1.274-.802 1.783-1.615-.764-.403-4.322-3.786-4.322-.403 0 .671 1.402 2.018 2.539 2.018M253.65 94.981c0-1.352.38-.144.38-2.022 0-1.49-3.69-.277-4.706-.139.895-1.212 4.071-2.305 4.071-4.998 0-.677-.895-1.36-1.266-1.36h-5.08c-2.8 0-5.592-.536-7.63 1.624-.125.408-.889.675-.889 1.086 0 1.753 2.416 1.487 4.068 1.753v3.651h-1.908c-2.16 0-4.06-1.617-5.712-1.617v2.295c3.683 3.911 7.62 3.377 11.18 7.156.762.813 1.014 2.295 2.792 2.295 1.134 0 1.39-1.622 2.536-2.025 4.07-1.627 4.474.35 5.085-7.027-.766-.27-2.418-.54-2.92-.672M228.623 64.168h-1.52c0 .674.187 1.181.438 1.604l-.183-.247v2.432c1.011.818 1.908 1.757 3.173 1.355l.378 1.338h1.91c0 .818.631 1.632 1.523 1.632 2.544 0 6.984-1.357 9.271-1.357.507 0 1.138.141 1.524.412-.762.813-3.178.813-3.178 2.02a2.605 2.605 0 0 0 0 1.352c-.503.27-.884.818-.884 1.35 0 1.218 3.3.687 4.062.687.383 0 3.177 0 5.08-.688-.508-3.776 1.02-5.408 1.02-8.498 0-2.035-.26-3.392-2.54-3.392-1.019 0-1.524 1.085-2.54 1.085-2.412 0-3.688-1.347-5.71-1.347-.896 0-1.41-.28-2.298.131.513 1.9 2.297 1.9 4.447 1.9v2.966c-3.17 0-4.189-2.967-6.982-2.967v1.624c.5.67 1.524 1.62 2.535 2.293-3.939 1.213-5.838-5.685-9.526-5.685M248.314 119.573c-.507.132-2.79-.411-2.79.667 0 .41 9.388 4.047 11.046 4.047 1.397 0 1.906-1.345 3.177-2.155-.758-1.892-5.97-6.9-7.874-6.9-2.547 0-2.035 3.787-3.56 4.34M265.458 83.5c-2.66 0-3.434 1.885-3.434 2.02 0 .409-.252 1.214 0 1.345h-2.908v2.303c.877 2.703 0 4.32 2.022 6.488-.118.668-.118 2.293-.118 4.05h2.527c1.531-1.616 2.551-2.03 2.934-4.452h-1.656c.763-2.704.763-.947 3.56-.947 3.812 0 5.586-2.967 7.233-5.398 0 0 2.292-1.764 2.292-2.044 0-.666-.133-1.073 0-1.745-4.579 0-8.138-1.62-12.452-1.62M225.455 60.12c.883 0 1.647-.67 1.77-1.614-2.66-.953-2.913-3.79-6.222-3.79 0 1.756 3.051 5.404 4.452 5.404M224.816 76.603c1.014-.126 1.277.143 2.542.143.762 0 1.908-.143 1.908-1.768 0-.947-.643-1.338-.896-2.026-1.777.688-3.054 1.36-3.554 3.651M224.816 44.313c-.128.542-.504 1.08-.89 1.35 1.013.812 1.65 0 4.444 0-.25.408-.25 1.214 0 1.626-1.523.54-2.666.404-3.804 1.627 1.138 1.21 1.654 1.074 3.426 1.074 1.9 0 3.558-.682 4.196.545 2.284-.277 3.675.533 5.96.533 2.927 0 2.666 3.38 5.718 3.38 1.015 0 2.295-.401 2.295-1.76 0-1.481-2.548-2.561-3.564-3.643.252-.406.76-.951 1.016-1.352-.631-.676-2.035-3.11-3.814-3.11-.761 0-1.137 1.08-1.898 1.08-1.397 0-1.267-3.107-3.814-3.107-1.013 0-1.516 1.087-2.537 1.087-1.531 0-2.162-2.434-4.832-2.434-1.524 0-2.54.82-4.058 1.083 0 1.616.376 2.02 2.156 2.02" fill="#EDEDED"/><path d="M235.358 52.689c-.504 0-3.428 2.027-1.149 2.027 1.902 0 3.434 0 4.071-.946-1.14-.401-1.528-1.081-2.922-1.081M282.99 78.767h1.519c-.252 2.292 3.686 2.697 6.357 2.024h10.158c1.147-.815 1.4-1.478 3.176-1.752.254.937.883 2.02 2.54 2.02 4.445 0 10.163 0 10.545-4.733 0 0-.76.151-1.653-.124a3.27 3.27 0 0 1 .637-1.254c.366-.037.81-.128 1.016-.239-1.786-3.506-5.084-3.78-10.161-3.78-6.608 0-8.896 3.382-15.88 3.382-3.173 0-5.708-.813-8.766-1.617-.502.395-2.033 1.217-2.033-.679 0-.405.64-.405.893-.684-1.78-1.478-4.955.541-5.717-3.102h5.084c-1.146-1.758-6.987-.949-5.973-4.06h-2.284c-.512.815-1.27 1.082-2.548 1.082-4.31 0-5.328-4.725-11.052-4.725-1.512 0-3.802 0-3.802 2.022 0 1.221 7.753 4.732 9.142 4.732 1.016 0 1.777-.547 2.542-1.344 2.159 2.293 2.789 4.458 5.083 6.884-.505.27-1.527 1.211-1.527 2.162 0 2.694 6.349 6.077 9.148 6.077 1.144 0 3.044-1.61 3.557-2.292M266.732 76.058c0-1.747-3.05-4.448-5.335-4.448-2.918 0-2.408 3.099-3.81 3.099-.248 0-1.652.686-1.652 2.037 0 0 7.363 3.639 8.257 3.639 1.779 0 2.54-2.025 2.54-4.327M267.114 56.472v-1.756c-1.272.274-.256 0-1.656 0-2.412 0-6.98.274-8.249 1.623 0 0 7.36 1.483 7.994 1.483 1.151 0 1.911-.669 1.911-1.35M253.776 51.75c-.378.138-1.273.671-1.273 1.345 0 1.621 4.45 1.082 8.894 0-.375-1.485 0-2.433 0-3.375 0-2.844-4.443.142-4.443-3.11-1.397 0-4.066-.946-4.451-2.028-1.264.141-2.912.686-2.912 2.028 0 2.698 2.662 3.514 4.185 5.14M247.424 38.243h2.164v-2.7c-.892 0-2.803-.143-4.457 0 0 1.617 1.53 1.884 2.293 2.7M263.549 35.547c-1.132 0-3.171-.822-3.802-1.353h-1.902c.37 3.909 3.05 4.309 7.359 4.309-.758 1.082-1.655 1.22-2.92 1.76 0 .806.133 1.353 1.016 1.353 1.02 0 1.396-.547 2.67-1.077.385.796.508 1.753 1.775 1.753 1.525 0 1.904-1.082 3.808-1.082 1.914 0 3.304.54 5.21 1.082-1.776.396-9.648.133-9.648 2.696 0 2.029 3.554 3.383 5.717 3.383-.384.412-.77.813-1.654.937.252 1.899 3.049 2.436 5.078 2.436 1.909 0 3.048-.68 3.048-3.104 1.145.81 3.428 2.567 4.574 2.425v-1.757h2.284c-.378-1.078-.892-1.338-1.653-2.695.644-.676.904-1.354 1.53-2.025.382 1.488.382 2.7 2.032 2.7 1.652 0 3.43-4.052 5.966-4.32 1.019-.133 2.419.13 2.924-.676.382-.542.13-1.082.13-2.028-1.658-.141-4.956-1.761-6.225-1.761-.261 0-2.166 1.22-2.166 0 0-.812.896-1.082.896-2.023 0-.933-1.525-1.082-1.525-2.022 0-1.617.124-2.306-1.65-2.306h-1.268l.63.952v1.752h-1.526c-1.145-1.214-.38-2.963-2.284-3.783-1.907-.803-3.173.54-5.078-.268-2.038-.811-1.526-4.726-4.063-5.807-2.293-.953-4.825-1.222-8.007-1.484.13 1.887 2.29 2.019 3.81 2.83h-2.157c-2.291-.538-3.301.27-4.827 1.22 0 .135 1.148 2.159 1.649 2.159.766 0 2.289-.807 3.56 0-.382.415-.636 1.35-1.4 1.35-1.014 0-1.653-.935-3.435-.935-1.13 0-2.91-.144-2.91 1.35 0 1.483 3.93 2.424 5.58 2.97 0 0-.63 1.089-1.146 1.089M309.915 151.723c-.636-.546-.252-1.486-.886-2.431-2.288-3.252-6.357-1.891-9.02-5.41-.385.258-.762.543-1.14 1.093-.641-1.351-1.27-1.758-1.91-3.791-3.556.4-4.192 5.807-4.192 8.108v2.024c0 .802-.631 1.22-1.265 1.76-.258.669-1.78.4-1.906 2.699 1.009-.13 3.429-.551 5.46 0-.254 1.35-.64 2.699.883 2.699.635 0 .635-.4 1.02-1.078 1.779.802 5.976-2.022 5.976-5.012.754.275 4.822 3.39 4.822 3.39h3.428c1.653 0 2.793-.55 4.194-1.478-1.14-1.637-3.431-.948-5.464-2.573M334.05 129.437c0-4.461-7.87-5.407-7.87 0 0 1.606 1.262 2.967 3.166 2.967 1.522 0 4.703-1.22 4.703-2.967M305.472 159.425c-.126.795-1.784 2.017-2.8 3.373v1.75c2.037-.268 5.207-2.969 6.356-4.588-1.536-.674-1.017-.674-3.556-.535M319.192 94.307c2.154 0 3.294-1.35 4.695-1.35 1.402 0 2.16.94 3.813.94 1.142 0 1.908-.94 2.283-2.164-2.284-1.218-5.197-4.182-8.637-4.182-2.664 0-3.551-1.081-6.344-1.081-1.024 0-2.168.675-2.168 2.03 0 1.482 1.402 2.16 2.544 2.836-.894 2.288 1.273 2.97 3.815 2.97M316.264 167.253c1.267 0 1.53-1.891 2.293-2.973-1.273-1.616-4.196-1.483-4.196.948 0 0 1.652 2.025 1.903 2.025M339.512 128.479c-.384-.527-1.397-2.161-2.538-2.161-.263 0-1.656.949-1.656 1.362 0 .799.762 1.075 1.656 1.075 1.26 0 .89.139 2.538-.276M321.725 118.485c-1.518 0-4.44 3.104-2.926 3.104 1.534 0 2.551-1.486 2.926-3.104" fill="#EDEDED"/><path d="M349.033 106.06c.378-2.303-2.792-2.71-4.176-2.71h-3.186c-4.196 0-5.078-4.596-7.878-6.742-1.646-1.226-7.11-2.032-9.526-2.032-2.287 0-2.917 3.374-5.078 3.374-1.145 0-1.528-1.343-2.924-1.343-1.262 0-1.779 1.343-2.54 1.343-.63 0 0-2.162 0-2.696 0-2.98-1.777-7.703-5.074-7.703-5.084 0-13.6 1.621-13.6 6.755 0 1.343 1.271 2.302 1.271 3.644 0 1.087-1.774 2.706-2.533 2.706-1.528 0-1.272-1.219-1.272-2.294 0 0-.256-1.484 0-2.44-.638 0-1.019-.54-1.019-1.346 0-3.916 4.188-4.19 5.461-7.024-.13 0-4.19-1.353-4.19-1.353-4.313 0-7.617 2.302-10.164 4.993-.51.54.125 2.982-.889 3.79-1.903 1.48-2.542 2.296-2.542 6.072 0 1.218 1.908 3.651 1.908 3.651s5.84.544 6.988 1.355v1.754c-2.158-.267-4.069-1.088-5.716-.404.251 1.888 2.154 2.151 2.798 4.047h6.09c.763 1.084 2.794 2.71 3.81 2.71 5.721 0 15.373-.41 19.31 0-.125.933-.638 3.105 1.013 3.105 2.286 0 4.325-5.136 5.975-5.136 1.397 0 8.256 6.218 9.397 7.437-.764.132-3.052.4-3.052 1.75 0 .267.51 1.62 1.016 1.62 1.655 0 2.415-1.62 4.063-1.62 2.672 0 10.8 6.628 10.8 10.136 0 1.886-2.67 4.858-3.81 6.072-.889.946-3.17-.27-3.17 2.034 0 1.08 1.644 2.43 2.281 2.828-1.525 1.088-4.573 1.89-5.71 1.89h-5.47c-1.773 0-5.077 2.306-5.077 3.656 0 1.885 4.064 3.787 5.46 3.787 1.528 0 2.288-2.034 3.818-2.034 1.141 0 .878.946 2.153.946 1.134 0 1.904-1.083 2.544-2.029 3.677 2.292 5.716 4.867 9.903 6.764-2.156 4.322 5.461 4.19 8.514 6.07 3.174 2.03 5.587 1.221 9.27 3.105.38.142.631 1.63 1.268 1.63.507 0 1.273-.681 1.273-1.63 0-3.77-7.112-6.61-9.275-9.45h1.906c1.395 1.897 9.53 5.122 11.815 5.405.5-1.496 1.903-4.048 1.903-5.404 0-1.488-2.286-2.157-2.286-3.106-.132-.535-.132-.535 0-2.7h-2.16c-.256-2.3-1.144-.684-3.55-1.623-1.025-.406-2.55-3.387-2.799-5.14h-1.654v-2.024c.513.41 1.144.27 1.903 0v-1.625c-1.14.27-1.39.41-2.532-.266.121 0 1.773-1.486 2.532-1.486 6.1 0 6.357 9.189 12.7 9.189 1.4 0 1.65-2.292 1.65-3.788 2.415 0 2.802-1.209 2.802-1.614 0-.68.126-.272 0-1.766 1.647 0 3.81-.535 3.81-2.29 0-2.159-1.019-3.11-3.434-3.11-.625 0-1.649 0-2.286-.666-1.014-2.577-1.644-.68-4.443-.68-1.907 0-2.539-2.3-2.795-4.73-2.669-.274-6.09-1.618-6.348-4.732-1.656 0-2.415-.41-3.559-1.075 1.144-2.029 2.16-2.029 4.19-3.11-.373-.81-1.263-1.215-1.905-1.215-1.14 0-1.654 0-3.81-.27 1.017-1.629 2.67-1.49 4.452-1.887-.767-1.895-1.783-3.249-3.556-3.249h-2.166v-2.297c-3.55-.412-5.463-2.572-8.893-3.78M321.981 156.99c1.271 1.079 1.652 1.079 2.928 0-1.53-.81-1.657-1.76-2.928 0M300.773 140.507c-.134.946.883 2.018 2.535 2.157-.884-1.211-.884-2.962-2.535-2.157M277.526 20.668h3.809c-1.523.554-2.282.95-3.55 2.3.244.142 1.65 1.074 2.28 1.074 2.41 0 2.546-2.425 5.087-2.425 1.008 0 1.392 0 2.54.281-3.304 1.07-6.483.675-7.88 4.182 1.022-.135 3.559 0 5.972 0-1.65.141-2.533.811-3.43 1.484.897 1.22 4.445 2.836 6.99 2.836 1.139 0 1.9-.672 2.789-1.349h1.654c-.764 1.753 2.54 2.701 5.083 2.701 1.017 0 1.518-1.352 2.533-1.352 1.269 0 2.037 1.088 4.449 1.088 4.06 0 6.984-.957 9.527-3.108h1.904c-1.524 2.02-3.688 2.693-6.094 3.775h-6.35c-.254.407-.896.812-.896 1.353 0 .811 4.063 3.512 4.706 4.183-3.563.411-4.706-3.498-7.874-4.582-2.542-.823-5.34-.269-6.74-.269-.631 0-1.266-.278-1.902 0 .26 1.075.504 1.62 1.902 1.62-1.266 0-3.168-.267-3.168 1.083 0 2.422 8.634 2.422 8.634 6.75 0 3.782-3.814 2.565-6.986 3.644-1.91.675-2.793 2.16-3.814 4.46v1.617h1.904c.518-.533.518-.533 1.278-.94h1.904c0 3.233 3.935 4.865 5.714 6.748h-2.282c-2.416-1.483-3.815-3.777-7.874-3.777-1.274 0-3.185-.54-3.185 1.355 0 2.422 2.666 2.832 4.2 4.05-2.668 2.022-9.277 0-9.277 5.406 0 .397.379 1.08 1.27 1.08.636 0 1.14-.683 1.529-1.353 4.442 1.491 7.872 2.697 12.057 2.697 1.91 0 2.674-1.344 3.81-1.344h9.533c2.54 0 1.27 2.03 4.189 2.03 2.92 0 10.16-2.44 10.16-4.734 0-1.21-1.52-1.083-1.902-1.083h-3.171c0-4.596 5.329-2.029 5.329-6.35 0-.809-.633-1.083-.894-2.029h6.352c2.158-1.614 3.052-4.86 5.723-6.199-.765-1.907-2.161-2.444-3.685-3.254 2.41.266 3.94.541 3.685-2.43h-3.565c2.039-1.765 5.208-2.035 8.01-2.977 2.03-.668 4.833.942 6.602-.408 3.81-2.959 6.734-8.365 11.808-10.122 4.574-1.63 11.687-3.516 14.615-6.624-3.184-.139-8.257.94-9.53-.415 6.73-3.492 12.96-1.077 18.035-5.13.892-.673 3.175-.266 3.175-2.017 0-2.432-6.735-1.759-8.25-3.389-.764-.803-.764-1.888-2.163-2.282-.887-.273-1.394-.546-2.287-1.084l-10.162 3.105c1.02-.268 1.4-.542 2.29-1.488-2.538-2.704-13.47-2.3-16.517-2.3h-3.552c-1.15 0-1.906-.946-3.81-.946-1.78 0-2.288 2.303-4.072 2.303-1.902 0-2.53-1.62-4.825-1.62-.638 0-1.268.402-1.525.946h-14.603c-1.271 0-2.288.405-2.92 1.75-1.658 1.484-.383.268-2.54.268-3.684 0-5.213 2.844-6.345 6.081-1.146-.406-6.107-2.966-8.517-2.966-2.666 0-1.016 2.966-5.075 2.966 0 .546-.52 1.088-1.021 1.088h-2.788c-3.693 0-11.947 1.61-12.703 4.991h2.79c.38-.276 1.137-.673 1.903-.949" fill="#EDEDED"/><g transform="translate(342 -.118)"><mask id="d" fill="#fff"><use xlink:href="#c"/></mask><path d="M183.589 112.388c-2.668-.941-13.975-.398-13.975-4.456.635-.137 2.796-.546 2.796-1.754 0-1.075-1.267-1.488-1.267-3.383.629.407 1.267 0 1.9 0 5.206 0 3.944 6.75 9.913 6.75 1.387 0 3.429-.13 3.429-1.613 0-7.712-8.136-10-12.706-14.854v-2.034c.26 0 .638.14 1.649 0 .769 2.562 4.699 6.085 6.995 6.085 1.517 0 1.9-2.168 1.9-3.79 0-3.654-5.708-2.432-6.985-6.076h1.906c1.017 1.489 2.41 2.164 3.812 3.113 1.017-2.842 6.095-1.086 6.979-5.138-.633-.27-1.267-1.09-1.267-2.031 2.413-.271 4.954-1.48 5.714-3.637-1.523-.555-5.08-.417-5.08-2.706 0-1.767 2.035-1.767 4.067-1.767-.64-.796 0-1.887 0-2.963 0-2.026-1.898-2.836-1.898-5.807-1.784 0-4.068 0-4.068-2.302 0-.946 1.14-2.03 2.532-2.03 2.293 0 8.9 1.213 8.9-2.024 0-3.236-4.957-2.568-5.466-4.722.764 0 1.652-.415 2.284-.823-1.271-1.071-3.048-2.56-5.08-2.56-1.392 0-2.41.679-3.804 0 .758-1.351.634-4.59 2.153-5.811 2.415-1.886 5.079-2.836 5.079-5.674 0-.536.132-.536 0-2.02 2.41-.686 5.714-1.223 5.714-3.384 0-1.35.89.135 0-1.75 2.29-.543 5.714-.543 5.714-4.326-1.013.804-1.136.804-2.66 0 5.718 0 8.382-3.92 12.575-5.4.76-.28 3.177-1.484 3.177-3.12 0-1.752-5.97-4.725-7.622-4.725-1.268 0-2.162.13-2.542 1.754h-6.096c-2.04 1.083-2.412 1.76-4.706 2.702-.5.139-2.912-.397-2.912-.397h-8.514c-2.035 1.625-8.462 10.534-11.756 11.476.377-1.345 8.583-10.536 8.583-11.745 0-2.036-.89-4.052-3.174-4.052-4.198 0-11.768 7.702-14.937 7.702-1.022 0 4.518-5.686 4.769-6.768-2.273-.934-23.574 1.757-25.732 0l27.89-1.612c3.435-1.357 12.068-.677 12.707-5.41-3.182-.807-7.625.134-11.054-1.343C167.455 5.256 161.87.118 154.38.118h-18.425c-6.473 0-11.43 3.788-17.525 3.788-1.911 0-3.176-.275-5.082 0v1.617h-2.543c-2.8-1.083-4.82-.94-7.868-.94-4.2 0-7.374.94-10.803 2.693.647.956 1.66 1.092 2.543 2.03-1.144.266-5.077-.396-5.077 1.617 0 2.569 5.21 4.335 7.234 5.405h-5.717c-3.164-1.612-6.22-4.72-11.432-4.72-1.265 0-3.163.134-3.163 1.75 0 1.087.625 1.9 1.014 2.97H75.63c-2.545-1.07-4.706-.805-6.103-3.364l-1.267 1.348c0 .946.635 1.75.635 2.704-2.415 0-3.053-4.052-5.34-4.052-3.432 0-5.963 2.153-9.522 3.099-4.834 0-6.73 1.347-11.814 2.022-4.066.544-.635 6.77-5.081 6.77-1.273 0-2.285-.28-3.3-1.09-2.542 2.697-8.26 5.94-12.574 7.426-.638.133-2.542.813-2.542 2.036 0 2.56 7.237 2.435 9.534 2.704 0 3.37-1.401 5.802-3.433 7.156-2.794 1.752-7.366-.281-10.8.939-2.41.813-3.815 2.3-6.103 3.109-2.785.954-7.24-.542-7.24 3.646 0 2.169 12.193 5.81 12.7 5.81h4.447c.644 0 1.019-.674 1.278-1.342h5.079c-.38 1.486-.38 2.022-1.646 2.968h-7.245c-.633.944-1.02 1.084-2.281 1.084H9.835c-1.018 0-3.563.808-3.821 2.695 2.417.95 1.65 0 4.449 0 1.523 0 3.052 1.49 5.083 2.29-.503 1.216-1.392 1.357-2.533 2.17 1.512 2.02 5.58 3.24 8.252 3.24 1.017 0 .884.412 1.648-.398-.374-.135-.883-.68-1.27-1.096.639-.263 1.146-.524 2.542-.524 1.517 0 2.67 1.078 3.81 1.078 1.646 0 2.414-1.766 4.065-1.766h3.806c14.227 0 23.113 11.759 26.675 23.386v2.016c1.148.139 3.176.276 3.176 2.302 0 3.098-2.79 2.832-2.79 5.807 0 2.028 1.137 2.294 3.425 2.294 1.653 0 2.032-2.294 3.176-2.294 4.199 0 5.334 6.342 9.266 7.693-.12.827 0 2.039-1.258 2.039-3.053 0-4.962-2.04-7.625-2.04-1.146 0-1.015-.53-2.294 0 .514 3.797 9.784 4.466 13.72 5.812-1.138 3.788-3.043 5.132-3.801 9.19-1.79-.808-1.79-.674-3.561.274v.272c-2.543 2.158-3.305 4.856-5.08 7.42v3.122c.762-.7 1.65-.55 2.537 0-.38 1.346-1.271 2.015-1.271 3.367 0 3.648 3.429 5.136 4.196 7.708.375 1.348.763 3.907 1.274 4.453 2.15 1.208 2.789-2.157 4.693.403-.887.946-1.904.805-1.904 2.563 0 3.92 4.83 10.006 7.366 12.169.378.267.127 2.157.88 2.697 2.043 1.618 3.312.677 4.2 3.78 1.527-.137 3.558-1.757 5.33-1.757 3.183 0 2.93 6.09 6.104 6.09.766 0 1.016-.808 2.539-.955.254.823.634 1.36 1.532 1.36 3.42 0 1.898-7.03 4.819-8.518-.26-1.478 0-4.998 0-7.427 0-3.926 5.964-2.437 5.964-7.021 0-1.488-1.52-2.176-1.52-3.107 0-.677.506-1.093.885-1.63 0-.401-.248-.94-.248-1.346 0-4.464 6.856-3.242 9.52-6.078 1.146-1.214.636-2.575 2.548-3.384v2.704h1.905c2.67-2.02 6.98-1.355 9.52-4.056 1.9-2.015 2.043-4.72 4.446-6.743l3.182-2.445c0-1.08 1.263-1.48 2.534-2.287h5.97c4.826-2.172 8.512-1.763 13.09-3.381 3.678-1.221 4.953-5 9.14-6.491 2.292-.805 3.562-.946 5.463-2.563" fill="#EDEDED" mask="url(#d)"/></g><path d="M410.005 118.22h2.798c2.156 0 4.82-.41 5.074-2.705-3.303-1.078-4.316-4.73-7.62-4.73-1.147 0-2.79.672-2.79 2.701 0 1.617 1.386 4.594 2.538 4.733M538.538 72.953c-.375.405-1.271.959-1.271 1.756 0 .686.77 2.037 1.658 2.037 1.276 0 3.426-1.628 4.064-2.037h-2.157v-1.756h-2.294zM404.674 223.862c0-.534-.383-1.347-.881-1.347-2.045 0-2.814 2.296-3.821 4.049-1.902 3.107-3.308 9.195-6.862 11.07.126.408.633.687 1.013.687v.804c0 .137-2.278 2.034-2.278 2.565 0 .408.63 1.357 1.265 1.357 1.523 0 2.038-.804 3.94-.804 1.394 0 2.158.939 3.812.939.886 0 1.65-.277 2.53-.665.644 1.344 2.294.53 3.562.53-.375.814-1.397.814-1.397 2.163 0 .267.512 0 .764 0 1.522 0 2.674-2.028 3.684-3.663 1.017 1.09.252 3.663 1.269 3.663.383 0 .637.267 1.014.267 0 .537.262 1.618 1.149 1.618 1.26 0 2.024-1.618 2.024-3.234 0-1.344-.881-1.223-.881-2.841-.765.527-.388.806-1.654.806 0-.941-.89-1.484-.89-2.158 0-.543 1.143-.81 1.273-2.033-.505 0-1.152.14-1.398.407 0-2.024.125-3.244.125-4.455-.633.414-2.282.414-3.687 0l-1.522.543v-.671h-2.286v-1.227l.64-.66c-.507-.554-1.268-.688-2.033-.688-.884 0-.884.81-1.905 1.078v-1.205c.753-2.451 3.43-3.912 3.43-6.895M1107.318 76.746c1.263 0 1.905-1.22 2.788-2.035.644.816 1.153 1.343 2.29 1.343 1.271 0 2.03-1.072 2.792-1.072 1.031 0 1.532-.95 2.543-.95.892 0 1.398 1.356 2.298 1.356 1.513 0 2.153-1.356 3.167-1.356h3.431c0-1.073 1.78-2.564 2.277-4.454-2.654-.803-10.154-3.642-12.439-3.642-1.519 0-2.149 1.624-2.149 3.642-3.439 0-3.699-4.324-7.63-4.324-2.672 0-5.716 2.306-5.716 5.396 0 3.258 3.044 6.096 6.348 6.096M46.989 192.25v1.62c.899.675 1.535.81 2.666 1.77 1.908-1.632 2.675-2.58 4.957-3.798v-1.618h-1.52c-2.287 0-3.935 1.352-6.103 2.026M660.236 286.608c-1.916-.414-2.676.892-4.327.892-1.783 0-2.932-1.76-5.592-.422v.955c.377.672 1.399.534 1.774.672 2.035.675 3.689 2.98 5.845 3.516 0 .402.637.551 1.018.551.385 0 .762-.55.762-.95 0-1.077-.64-1.214-.64-2.17 0-.544.64-1.48.64-1.48l.52-1.564zM779.628 116.87c-.256 0-1.652 2.563-1.652 3.096 0 1.361.74 1.623 2.283 1.623 2.157 0 3.676-1.35 5.328-2.287v-1.763c-1.777-.262-2.667-2.024-4.45-2.024-.634 0-.878 1.354-1.509 1.354M816.07 111.195c0 1.623 2.793 3.383 4.451 3.383 0 0 1.653.255 1.653-.688 0-2.695-6.103-5.4-6.103-2.695M862.802 89.441c-1.263-1.083-1.64-2.576-3.16-2.576-1.143 0-1.909 1.493-1.909 2.706 0 .411-.368 1.354 0 1.354 1.52 0 4.448-.943 5.07-1.484M1120.272 88.218h3.81c-.131-3.099-2.67-5.4-5.965-5.4-2.93 0-4.581 1.906-6.106 4.046l.642-.665c2.42.946 5.337.665 7.619 2.02M1145.416 76.326c2.043 0 5.721-.527 5.721-2.015 0-.675-.508-1.359-1.27-1.359-.499 0-13.844-1.749-14.992-2.69l1.27 1.07c0 3.377 5.981 4.994 9.271 4.994M1115.188 81.06c0-1.888-3.415-2.163-3.415 0 0 1.229.109 1.758 1.515 1.758.894 0 1.9-.666 1.9-1.758M5.46 176.043c-1.016 0-1.405-.268-1.91.94h-1.9c.252.535 1.01.955 1.52 1.356h4.199c-.262-1.356-.385-2.296-1.908-2.296" fill="#EDEDED"/></g></svg>